<?xml version="1.0" encoding="UTF-8"?>
<svg version="1.1" xmlns="http://www.w3.org/2000/svg" width="643" height="622">
<path d="M0 0 C1.40026027 -0.00159383 2.80051977 -0.00406306 4.20077717 -0.00731641 C7.99836355 -0.01365063 11.79584117 -0.00772397 15.59342027 0.00044787 C19.70971371 0.00708867 23.82599622 0.0020623 27.94229126 -0.00143433 C35.99139509 -0.00645329 44.04045752 -0.00086171 52.0895562 0.00841597 C61.49826503 0.01886474 70.9069652 0.01872798 80.31567873 0.01824339 C97.13665945 0.01774358 113.95762113 0.02687761 130.77859497 0.04142761 C147.02469226 0.05547273 163.27077277 0.0626 179.51687622 0.06193542 C181.01406403 0.06187549 181.01406403 0.06187549 182.54149805 0.06181435 C183.53804911 0.06177399 184.53460017 0.06173364 185.56134975 0.06169206 C204.1435171 0.06099747 222.72567745 0.06692447 241.30784252 0.07584528 C247.83132594 0.07883243 254.35480805 0.07992137 260.87829208 0.08037758 C268.86696977 0.08106846 276.85563566 0.08565087 284.84430836 0.09471039 C288.90321975 0.09924785 292.96211634 0.10240483 297.02103043 0.10111618 C313.28481156 0.09719999 329.53557493 0.22803763 345.79376221 0.67819214 C346.49996243 0.69651735 347.20616266 0.71484256 347.93376289 0.73372308 C378.64241853 1.55220834 409.07589036 7.92115821 434.32107544 26.24723816 C434.90195923 26.66344421 435.48284302 27.07965027 436.08132935 27.50846863 C467.26464289 50.10297752 484.13908999 83.81125371 490.32107544 121.24723816 C492.74286687 138.00552699 492.61744149 154.88632272 492.59718382 171.77654135 C492.59468218 175.6970767 492.60377297 179.61758971 492.61122131 183.53811646 C492.62387873 191.19215203 492.6257731 198.84615239 492.62342105 206.50019667 C492.62162672 212.73512231 492.62341122 218.97003739 492.62764549 225.20496178 C492.62824068 226.09764512 492.62883587 226.99032846 492.6294491 227.91006282 C492.63066106 229.7245492 492.6318752 231.53903558 492.63309147 233.35352197 C492.64393367 250.31862859 492.641821 267.28371528 492.63570663 284.24882301 C492.63054696 299.69382638 492.64177374 315.1387665 492.66080485 330.58375738 C492.68028481 346.51775751 492.68842116 362.45172789 492.68468159 378.38573998 C492.68278402 387.30113984 492.68511362 396.21648599 492.69939613 405.13187599 C492.71144179 412.72672012 492.71257049 420.32147755 492.70060597 427.91632316 C492.69480645 431.7745724 492.69336153 435.63266417 492.70560837 439.49090195 C492.86008838 491.85815422 487.94248376 543.41776177 449.63357544 582.49723816 C434.03396111 597.88254647 415.83172296 608.45070331 394.82107544 614.62223816 C393.66817017 614.96230896 393.66817017 614.96230896 392.49197388 615.30924988 C389.7831977 616.04483703 387.06367351 616.64853185 384.32107544 617.24723816 C383.19474953 617.50083918 382.06842361 617.75444019 380.90796661 618.01572609 C364.42877845 621.32557353 347.57042404 620.67575558 330.84529948 620.63941216 C326.17309334 620.6325615 321.50091957 620.6431324 316.82872009 620.65135193 C307.70019136 620.66462789 298.57173701 620.66183906 289.44320548 620.65311401 C282.01818653 620.64631356 274.59318829 620.6454309 267.16816711 620.64868546 C266.10771308 620.64914515 265.04725905 620.64960485 263.95467004 620.65007848 C261.79976308 620.65103775 259.64485612 620.65201039 257.48994917 620.65299626 C237.32671426 620.66153217 217.16352041 620.65174432 197.00029224 620.63559516 C179.73366428 620.62219363 162.46709684 620.62452223 145.20046997 620.63835144 C125.1048726 620.65443911 105.00931112 620.66070837 84.91370821 620.65151465 C82.7671334 620.65055909 80.62055859 620.64961598 78.47398376 620.64868546 C77.41807961 620.64822263 76.36217545 620.6477598 75.2742742 620.64728295 C67.86605291 620.64470261 60.45785457 620.64904334 53.04963684 620.65612411 C44.01022268 620.66457483 34.97088657 620.66218438 25.93148124 620.64628188 C21.32754594 620.63844695 16.72374036 620.63522507 12.11980629 620.64522934 C-23.36944499 620.71599686 -23.36944499 620.71599686 -38.67892456 617.24723816 C-39.70541862 617.01583822 -40.73191269 616.78443829 -41.78951263 616.54602623 C-44.12116498 615.98700812 -46.39198701 615.34109222 -48.67892456 614.62223816 C-49.90119751 614.24373718 -49.90119751 614.24373718 -51.14816284 613.85758972 C-66.05679721 609.03429236 -79.46169204 602.03236925 -91.67892456 592.24723816 C-92.26512573 591.78446472 -92.8513269 591.32169128 -93.45529175 590.84489441 C-120.4639321 569.33126616 -135.23331243 540.10243162 -141.36642456 506.49723816 C-141.67024048 504.83978577 -141.67024048 504.83978577 -141.98019409 503.14884949 C-145.4730394 482.9477354 -145.97153237 462.9027388 -145.92571485 442.4450289 C-145.9190468 438.46887322 -145.92410579 434.49272842 -145.92759705 430.51657104 C-145.93260215 422.7557969 -145.92704448 414.99506585 -145.91774675 407.23429707 C-145.90728928 398.17520687 -145.90743486 389.11612563 -145.90791932 380.05703052 C-145.90841839 363.88320075 -145.89930025 347.70939084 -145.88473511 331.53556824 C-145.87064387 315.87964008 -145.86356479 300.22372939 -145.86422729 284.5677948 C-145.86426725 283.60292657 -145.86430721 282.63805835 -145.86434837 281.64395169 C-145.86438873 280.6806678 -145.86442908 279.71738391 -145.86447066 278.7249096 C-145.86516232 260.84155244 -145.85926101 242.95820262 -145.85031744 225.07484785 C-145.84731473 218.77576719 -145.84623952 212.47668788 -145.84578514 206.17760658 C-145.84509958 198.49266721 -145.84058749 190.80774023 -145.83145233 183.12280611 C-145.82686893 179.20976689 -145.82377592 175.29674341 -145.82504654 171.38370132 C-145.83507988 131.19174822 -145.83507988 131.19174822 -142.92892456 116.24723816 C-142.75119507 115.31919373 -142.57346558 114.39114929 -142.39035034 113.4349823 C-136.97324899 86.1075148 -125.28979238 62.97912108 -106.67892456 42.24723816 C-105.96091675 41.44415222 -105.24290894 40.64106628 -104.50314331 39.81364441 C-77.6795645 11.47460917 -38.05473152 -0.15523504 0 0 Z " fill="#1766DD" transform="translate(149.67892456054688,1.7527618408203125)"/>
<path d="M0 0 C2.59722772 0.00534909 5.19428147 0.0000265 7.79150391 -0.00634766 C18.14620507 -0.01003129 28.40694578 0.33773281 38.73291016 1.13037109 C38.73291016 1.79037109 38.73291016 2.45037109 38.73291016 3.13037109 C39.80283203 3.08396484 40.87275391 3.03755859 41.97509766 2.98974609 C47.73932518 2.99481355 53.23489187 4.2086091 58.85791016 5.38037109 C59.9686792 5.60853516 61.07944824 5.83669922 62.22387695 6.07177734 C74.59375242 8.66054777 86.1560142 12.00171096 97.73291016 17.13037109 C99.16335195 17.73713289 100.59438276 18.34250723 102.02587891 18.94677734 C116.68201861 25.20018812 129.3577651 33.11085991 141.73291016 43.13037109 C142.54630859 43.77619141 143.35970703 44.42201172 144.19775391 45.08740234 C159.13492241 57.55691911 170.54787662 76.22948592 174.73291016 95.13037109 C175.26271484 96.87447266 175.26271484 96.87447266 175.80322266 98.65380859 C181.64620952 122.06206524 175.00958558 145.7004527 163.73291016 166.13037109 C161.65293352 169.43331841 159.37475523 172.2648214 156.73291016 175.13037109 C155.88728516 176.09201172 155.04166016 177.05365234 154.17041016 178.04443359 C145.91414846 187.3510696 137.14598261 195.29442396 126.73291016 202.13037109 C125.83701172 202.72205078 124.94111328 203.31373047 124.01806641 203.92333984 C116.10712613 208.9651349 107.86257708 213.25357971 99.53710938 217.56225586 C64.53945312 234.43745654 64.53945312 234.43745654 42.98291016 265.00537109 C41.21246019 271.96781478 41.17753782 279.11832334 40.94384766 286.26318359 C40.73291016 290.13037109 40.73291016 290.13037109 39.73291016 291.13037109 C38.3541499 291.22576299 36.970541 291.25225732 35.58848572 291.25062561 C34.69521072 291.25200027 33.80193573 291.25337494 32.8815918 291.25479126 C31.89400879 291.25119598 30.90642578 291.24760071 29.88891602 291.24389648 C28.33787926 291.24411552 28.33787926 291.24411552 26.75550842 291.24433899 C23.3195693 291.24363937 19.88368362 291.23584467 16.44775391 291.22802734 C14.07263722 291.22616334 11.69752016 291.22473935 9.32240295 291.22373962 C3.05714871 291.21991306 -3.20808252 291.2100816 -9.47332764 291.19903564 C-15.86095875 291.18882449 -22.24859356 291.18424264 -28.63623047 291.17919922 C-41.17986011 291.16845945 -53.72347375 291.15157236 -66.26708984 291.13037109 C-73.97416685 276.47363449 -71.904301 254.19037973 -67.38818359 238.64599609 C-67.01822266 237.48583984 -66.64826172 236.32568359 -66.26708984 235.13037109 C-65.85136719 233.76138672 -65.85136719 233.76138672 -65.42724609 232.36474609 C-54.2242985 200.35632439 -22.19764905 182.91384485 5.98291016 168.25537109 C8.93518196 166.71604194 11.88727033 165.17636518 14.83886719 163.63574219 C16.73043807 162.65181895 18.62455089 161.67276315 20.52148438 160.69921875 C35.43238342 153.02729901 50.25881544 145.19397178 55.73291016 128.13037109 C57.0593378 121.51788365 55.59432084 116.28292351 52.34619141 110.45458984 C44.85419486 99.6610355 32.99234499 95.99359436 20.73291016 93.13037109 C-2.15757908 89.57839863 -28.24745819 91.94956534 -47.73974609 105.25927734 C-60.28221732 114.54497088 -69.07980333 126.68964199 -71.77490234 142.28271484 C-72.26708984 144.13037109 -72.26708984 144.13037109 -74.26708984 146.13037109 C-77.32543137 145.92648166 -80.24040282 145.57754236 -83.26708984 145.13037109 C-84.46720703 144.97052734 -85.66732422 144.81068359 -86.90380859 144.64599609 C-96.96596149 143.28093527 -96.96596149 143.28093527 -99.26708984 142.13037109 C-101.33763631 141.85459006 -103.40860829 141.68615524 -105.48974609 141.50927734 C-107.80171027 141.1938617 -109.98474205 140.76637395 -112.25537109 140.24755859 C-118.26619353 138.87505747 -124.32723385 137.79680451 -130.39208984 136.69287109 C-138.88398638 135.13479814 -147.36443696 133.5505649 -155.82177734 131.81396484 C-158.42863622 131.29673094 -161.03270289 130.81191646 -163.64990234 130.35302734 C-164.75748901 130.15604248 -164.75748901 130.15604248 -165.88745117 129.95507812 C-167.3132012 129.70324167 -168.74009587 129.45777389 -170.16821289 129.21972656 C-175.04462461 128.35283633 -175.04462461 128.35283633 -177.26708984 126.13037109 C-177.33037747 123.49037292 -177.26825953 121.00488079 -177.07958984 118.38037109 C-177.02770508 117.61684326 -176.97582031 116.85331543 -176.92236328 116.06665039 C-175.75845031 101.11161356 -171.66640667 86.24003025 -164.26708984 73.13037109 C-163.84943359 72.36595703 -163.43177734 71.60154297 -163.00146484 70.81396484 C-151.94416202 51.40293048 -134.31950927 34.93702877 -114.26708984 25.13037109 C-113.55713867 24.77555664 -112.8471875 24.42074219 -112.11572266 24.05517578 C-95.02831664 15.5360944 -95.02831664 15.5360944 -86.39599609 13.66552734 C-84.25788921 13.21220649 -84.25788921 13.21220649 -82.41943359 12.18896484 C-70.18274824 6.1705588 -54.12427133 4.40450285 -40.76708984 2.38037109 C-40.01661377 2.26508057 -39.2661377 2.14979004 -38.49291992 2.03100586 C-25.69317536 0.20207535 -12.90264251 -0.03151124 0 0 Z " fill="#FDFDFD" transform="translate(326.26708984375,58.86962890625)"/>
<path d="M0 0 C0.33 0 0.66 0 1 0 C1.06880976 42.77806123 1.12160148 85.55611602 1.15319599 128.33422172 C1.15694768 133.39550337 1.16083069 138.45678492 1.16479492 143.51806641 C1.16558185 144.52558936 1.16636878 145.53311232 1.16717956 146.57116628 C1.18019959 162.84091662 1.20383449 179.11063485 1.23145839 195.38036621 C1.25960763 212.10014357 1.27619628 228.81990423 1.28226548 245.53970432 C1.28636228 255.83962889 1.29925626 266.13946266 1.3237494 276.43935925 C1.33972439 283.52209143 1.34437405 290.60477732 1.34050413 297.68752617 C1.33860068 301.76134752 1.34131822 305.8350113 1.35761642 309.90880394 C1.54144868 358.34589023 -5.62715178 403.48442717 -40.6875 439.25 C-56.28711433 454.63530832 -74.48935248 465.20346515 -95.5 471.375 C-96.26860352 471.60171387 -97.03720703 471.82842773 -97.82910156 472.06201172 C-100.53785077 472.79759155 -103.25747271 473.40111753 -106 474 C-107.68617495 474.38067769 -107.68617495 474.38067769 -109.40641403 474.76904583 C-125.94078025 478.09728238 -142.8698683 477.42127356 -159.65168452 477.37751496 C-164.34819664 477.36858801 -169.04468369 477.3771404 -173.74119568 477.38337708 C-182.91382902 477.39281544 -192.08638312 477.38631049 -201.25901052 477.37411413 C-211.94909562 477.36043341 -222.63916225 477.36213711 -233.32925388 477.36424746 C-252.39904353 477.36742962 -271.46879568 477.35581058 -290.53857422 477.33618164 C-309.03435404 477.31714863 -327.53008999 477.31010342 -346.02587891 477.31567383 C-366.19606927 477.32173059 -386.3662404 477.3215589 -406.53642917 477.310188 C-408.68615897 477.30898075 -410.83588878 477.30777476 -412.98561859 477.30657005 C-414.04321129 477.30596651 -415.100804 477.30536298 -416.19044496 477.30474115 C-423.64036528 477.30086315 -431.09027844 477.30125504 -438.54019928 477.3031559 C-447.61068617 477.30527699 -456.68113466 477.30005941 -465.75161073 477.28554235 C-470.37833584 477.27829699 -475.005005 477.27422272 -479.63173485 477.27878571 C-483.8663886 477.28286056 -488.10092681 477.27770112 -492.33556303 477.26515963 C-493.86740831 477.26223087 -495.39926447 477.26266588 -496.93110695 477.26680271 C-499.01389227 477.27191694 -501.09629199 477.264712 -503.17905045 477.25447559 C-504.33563164 477.25360882 -505.49221283 477.25274204 -506.68384194 477.251849 C-510.40815793 476.96900203 -513.45180433 476.13601627 -517 475 C-517 474.34 -517 473.68 -517 473 C-516.31292969 472.74605469 -515.62585938 472.49210937 -514.91796875 472.23046875 C-514.01691406 471.88628906 -513.11585938 471.54210937 -512.1875 471.1875 C-511.29417969 470.85105469 -510.40085937 470.51460937 -509.48046875 470.16796875 C-507.03175402 469.18955633 -507.03175402 469.18955633 -505.65576172 467.63500977 C-503.62208569 465.62682215 -501.43203149 464.21701012 -499.02734375 462.671875 C-498.04443359 462.03636719 -497.06152344 461.40085937 -496.04882812 460.74609375 C-495.02208984 460.08738281 -493.99535156 459.42867187 -492.9375 458.75 C-486.28604713 454.47008384 -479.69173516 450.15184367 -473.25610352 445.55175781 C-466.63829452 441 -466.63829452 441 -464 441 C-464 440.34 -464 439.68 -464 439 C-461.9375 437.66015625 -461.9375 437.66015625 -459 436.0625 C-453.786514 433.11414133 -448.84906906 429.92590257 -443.9375 426.5 C-438.67700265 422.83792483 -433.38584849 419.27358773 -427.95703125 415.86328125 C-424.2037834 413.49828888 -420.47539244 411.09606941 -416.75 408.6875 C-415.66875854 407.98850586 -415.66875854 407.98850586 -414.56567383 407.27539062 C-408.97933579 403.65451221 -403.4311945 399.97870351 -397.90917969 396.26049805 C-396.27838598 395.16528119 -394.6394581 394.08220387 -393 393 C-391.96089824 392.20443569 -391.96089824 392.20443569 -390.90080452 391.39279938 C-386.72878457 389.38963551 -382.98743489 389.58668095 -378.41525269 389.62145996 C-377.44433375 389.61692983 -376.4734148 389.6123997 -375.47307408 389.6077323 C-372.2161257 389.59609562 -368.95958702 389.60576103 -365.70263672 389.61523438 C-363.3682224 389.61112952 -361.03381012 389.60566917 -358.69940186 389.59895325 C-353.66792451 389.58721602 -348.63655691 389.58474857 -343.60506821 389.58930969 C-336.30974131 389.59554245 -329.01452527 389.58357793 -321.71922554 389.56580251 C-309.85530316 389.53714433 -297.99139471 389.5196402 -286.12744141 389.51123047 C-285.41750527 389.51072329 -284.70756913 389.51021611 -283.97611977 389.50969356 C-278.94241336 389.50616978 -273.90870673 389.50304153 -268.875 389.5 C-263.14925109 389.49653586 -257.42350239 389.49288461 -251.69775391 389.48876953 C-250.64051991 389.48801561 -250.64051991 389.48801561 -249.56192766 389.48724645 C-237.75867162 389.47846528 -225.95546303 389.45794833 -214.15223897 389.42928743 C-206.24535034 389.4106987 -198.33859919 389.40700811 -190.43169188 389.41422272 C-185.48573551 389.41575564 -180.53985978 389.40489025 -175.59392548 389.39084435 C-173.31852398 389.38687551 -171.04310671 389.38790808 -168.76771164 389.39461708 C-155.20064487 389.43151046 -142.32733809 388.59236665 -129 386 C-127.97321074 385.80216164 -126.94642147 385.60432327 -125.88851738 385.40048981 C-123.6364113 384.94844344 -121.41471365 384.43629529 -119.1875 383.875 C-118.38111084 383.67181152 -117.57472168 383.46862305 -116.74389648 383.25927734 C-91.66431767 376.55633406 -68.69853926 363.9758904 -50 346 C-49.10667969 345.15824219 -48.21335937 344.31648438 -47.29296875 343.44921875 C-27.49069975 324.3116413 -13.32569862 299.15413672 -5.78165054 272.71118164 C-5.22165669 270.76882382 -4.62654608 268.83645704 -4.00876999 266.91169739 C-0.32712047 254.27473604 -0.42370992 241.94897877 -0.45410156 228.8671875 C-0.44535259 226.36238975 -0.43486222 223.85759758 -0.42277527 221.35281372 C-0.40077561 215.99134129 -0.39070781 210.63005696 -0.39188385 205.26855469 C-0.3935629 197.51706658 -0.37311934 189.76575643 -0.34752855 182.01431608 C-0.30658405 169.43370638 -0.2831695 156.853129 -0.27099609 144.27246094 C-0.25914301 132.06214295 -0.23889908 119.85188566 -0.20751953 107.64160156 C-0.20461538 106.50986161 -0.20461538 106.50986161 -0.20165256 105.35525823 C-0.19188701 101.56963392 -0.18195808 97.78401005 -0.17194796 93.99838638 C-0.08930722 62.66561697 -0.03550302 31.33286 0 0 Z " fill="#052D8D" transform="translate(640,145)"/>
<path d="M0 0 C0.33 0 0.66 0 1 0 C1.08636719 0.77859375 1.17273438 1.5571875 1.26171875 2.359375 C2.5297033 12.45671983 4.91712612 22.10477143 7.48095703 31.93798828 C8.06996219 34.27794008 8.56794035 36.6260992 9 39 C9.66 39 10.32 39 11 39 C11.24234375 39.71285156 11.4846875 40.42570312 11.734375 41.16015625 C13.72125955 46.83806094 15.91042873 51.85071454 19 57 C19.31582031 57.80566406 19.63164062 58.61132812 19.95703125 59.44140625 C25.04887886 71.9326429 35.86215973 83.31882869 45 93 C45.62261719 93.67546875 46.24523438 94.3509375 46.88671875 95.046875 C57.96386747 106.658142 71.55735612 115.19063267 86 122 C87.77117187 122.83724609 87.77117187 122.83724609 89.578125 123.69140625 C92.155788 124.90352726 94.734188 126.11401741 97.31640625 127.31640625 C97.92371582 127.60016113 98.53102539 127.88391602 99.15673828 128.17626953 C100.39642857 128.73027152 101.65107254 129.25184089 102.91748047 129.74169922 C106.79736768 131.2502613 108.9926147 132.3279973 111 136 C111.27512513 138.79879858 111.37968089 141.36943493 111.34057617 144.16503906 C111.34123329 145.39486511 111.34123329 145.39486511 111.34190369 146.64953613 C111.33981637 149.35514269 111.3164882 152.0601269 111.29296875 154.765625 C111.28737259 156.64320538 111.28310259 158.52079014 111.28010559 160.39837646 C111.26865841 165.33699668 111.23919225 170.27535167 111.20599365 175.21386719 C111.17529009 180.25452079 111.16159964 185.29521731 111.14648438 190.3359375 C111.11432248 200.22407478 111.06312759 210.11201532 111 220 C111.66 220 112.32 220 113 220 C114.625 222 114.625 222 116 224 C109.06196414 224.32038555 103.17728559 223.6536344 96.5625 221.5625 C95.7070459 221.29663086 94.8515918 221.03076172 93.97021484 220.75683594 C78.89866368 215.87399621 65.35772818 208.89765809 53 199 C52.41379883 198.53722656 51.82759766 198.07445312 51.22363281 197.59765625 C24.21499246 176.084028 9.44561213 146.85519346 3.3125 113.25 C3.00868408 111.59254761 3.00868408 111.59254761 2.69873047 109.90161133 C2.07158208 106.27445494 1.52031298 102.64403024 1 99 C0.90397491 98.35118866 0.80794983 97.70237732 0.70901489 97.03390503 C-1.80484389 79.34825293 -1.26725383 61.43137635 -1.19561768 43.61456299 C-1.18470216 40.18290675 -1.18515207 36.75128979 -1.18575573 33.31961918 C-1.18548396 29.99876284 -1.18000489 26.6779321 -1.17275429 23.35708427 C-1.16958642 21.77867259 -1.16760464 20.20025803 -1.16686058 18.62184334 C-1.16468863 16.4289159 -1.15593204 14.23611336 -1.14526367 12.04321289 C-1.14145187 10.80003799 -1.13764008 9.5568631 -1.13371277 8.27601624 C-1.01585351 5.38841744 -0.66835973 2.80429394 0 0 Z " fill="#083AAA" transform="translate(5,395)"/>
<path d="M0 0 C1.134375 0.4021875 2.26875 0.804375 3.4375 1.21875 C17.48446047 6.66800191 28.13538682 15.82195798 34.9375 29.3125 C38.77393466 39.22117229 38.70707778 52.09445554 35.4375 62.1875 C33.10452799 67.43668703 29.79909937 71.72906388 26 76 C25.51144531 76.60457031 25.02289063 77.20914063 24.51953125 77.83203125 C15.17420578 88.47465125 -0.60837118 94.04974353 -14.42919922 95.20263672 C-34.55802741 96.29183385 -53.36452741 92.3537984 -69 79 C-77.97363169 70.37324819 -83.10564731 60.85844776 -83.43164062 48.23803711 C-83.46524815 34.32592324 -80.00916097 24.09427288 -70 14 C-51.02997566 -2.15859858 -23.89964429 -8.96236661 0 0 Z " fill="#FCFCFD" transform="translate(339,368)"/>
<path d="M0 0 C-0.33 0.66 -0.66 1.32 -1 2 C-3.83487005 2.66631561 -6.63775578 3.23047452 -9.5 3.75 C-35.02725145 8.75785391 -53.48019459 20.00710953 -72 38 C-72.60303955 38.57967529 -73.2060791 39.15935059 -73.82739258 39.7565918 C-77.69837048 43.53609202 -81.13035878 47.43848259 -84.3125 51.8125 C-84.77470947 52.44486572 -85.23691895 53.07723145 -85.71313477 53.72875977 C-91.18372793 61.4028509 -95.66172446 69.64698134 -100 78 C-100.35715088 78.68642578 -100.71430176 79.37285156 -101.08227539 80.08007812 C-106.56212192 90.80625864 -110.05689358 102.12815953 -112 114 C-112.13148437 114.78487793 -112.26296875 115.56975586 -112.3984375 116.37841797 C-115.09967128 133.25157285 -115.46729586 150.10636297 -115.70947266 167.15722656 C-115.72324951 168.05673538 -115.73702637 168.9562442 -115.7512207 169.88301086 C-115.7759615 171.59143304 -115.79601457 173.29993122 -115.81079102 175.00846863 C-115.8896139 180.7792278 -115.8896139 180.7792278 -117 183 C-117.15697341 186.84584848 -116.95659966 190.51026349 -116.4375 194.3125 C-115.88963209 198.67292814 -116.2541142 202.6893864 -116.84375 207.03125 C-116.92109375 208.00578125 -116.92109375 208.00578125 -117 209 C-116.67 209.33 -116.34 209.66 -116 210 C-115.90613619 211.8718094 -115.88256196 213.7471806 -115.88647461 215.62133789 C-115.88658791 217.42309227 -115.88658791 217.42309227 -115.88670349 219.26124573 C-115.89186478 220.5685112 -115.89702606 221.87577667 -115.90234375 223.22265625 C-115.90420802 224.56644132 -115.90563188 225.91022707 -115.90663147 227.25401306 C-115.91045598 230.79682277 -115.92028568 234.3395917 -115.93133545 237.88238525 C-115.94155101 241.49515227 -115.9461294 245.10792584 -115.95117188 248.72070312 C-115.96190802 255.8138188 -115.97898364 262.90690674 -116 270 C-116.66 270.33 -117.32 270.66 -118 271 C-118.33 309.61 -118.66 348.22 -119 388 C-119.33 388 -119.66 388 -120 388 C-120.02285775 356.95042543 -120.04053292 325.90085311 -120.05106533 294.85127211 C-120.0523159 291.17794767 -120.05361023 287.50462324 -120.05493164 283.83129883 C-120.05519395 283.10006687 -120.05545626 282.36883492 -120.05572652 281.61544441 C-120.06006696 269.80611606 -120.0679455 257.99679262 -120.0771528 246.18746717 C-120.08653467 234.05218221 -120.09206518 221.91689981 -120.09408849 209.78161138 C-120.09533239 202.97293895 -120.09830101 196.16427673 -120.10573006 189.35560799 C-120.11255909 182.93626311 -120.11460305 176.51693384 -120.11310768 170.09758568 C-120.11338093 167.75200439 -120.11534496 165.40642254 -120.11920547 163.06084442 C-120.1724322 129.02821171 -120.1724322 129.02821171 -117.25 114 C-117.07227051 113.07195557 -116.89454102 112.14391113 -116.71142578 111.18774414 C-111.29432443 83.86027665 -99.61086782 60.73188292 -81 40 C-80.28199219 39.19691406 -79.56398437 38.39382812 -78.82421875 37.56640625 C-60.62884724 18.34304764 -27.35918891 -1.32042418 0 0 Z " fill="#55A0F3" transform="translate(124,4)"/>
<path d="M0 0 C-0.33 0.66 -0.66 1.32 -1 2 C-3.83487005 2.66631561 -6.63775578 3.23047452 -9.5 3.75 C-35.02725145 8.75785391 -53.48019459 20.00710953 -72 38 C-72.60303955 38.57967529 -73.2060791 39.15935059 -73.82739258 39.7565918 C-77.69837048 43.53609202 -81.13035878 47.43848259 -84.3125 51.8125 C-84.77470947 52.44486572 -85.23691895 53.07723145 -85.71313477 53.72875977 C-91.18423075 61.40355626 -95.65789313 69.64828108 -100 78 C-100.52376221 78.99700928 -100.52376221 78.99700928 -101.05810547 80.01416016 C-103.48335222 84.7270264 -105.44266669 89.52061231 -107.25 94.5 C-107.518125 95.22703125 -107.78625 95.9540625 -108.0625 96.703125 C-108.71243824 98.46724308 -109.3568225 100.23340581 -110 102 C-110.99 102 -111.98 102 -113 102 C-112.87796088 76.06668805 -91.87735898 50.92589849 -74.60546875 33.59765625 C-56.43402366 16.45080342 -25.6819754 -0.84203198 0 0 Z " fill="#2A98F8" transform="translate(124,4)"/>
<path d="M0 0 C0.33 0 0.66 0 1 0 C1.01030746 0.69411484 1.02061493 1.38822968 1.03123474 2.1033783 C1.12964462 8.67876451 1.23221636 15.25407152 1.33933926 21.82932186 C1.3942546 25.20885706 1.44762025 28.58840125 1.49731445 31.96801758 C1.55538236 35.8628684 1.61897021 39.75759685 1.68359375 43.65234375 C1.70030624 44.8526976 1.71701874 46.05305145 1.73423767 47.28977966 C1.84459202 53.60003682 2.23572228 59.73704746 3 66 C2.84375 69.03125 2.84375 69.03125 2.5 71.5 C2.29690692 72.99550359 2.11940476 74.49549999 2 76 C2.33 76.33 2.66 76.66 3 77 C3.09386381 78.8718094 3.11743804 80.7471806 3.11352539 82.62133789 C3.11344986 83.82250748 3.11337433 85.02367706 3.11329651 86.26124573 C3.10813522 87.5685112 3.10297394 88.87577667 3.09765625 90.22265625 C3.09579198 91.56644132 3.09436812 92.91022707 3.09336853 94.25401306 C3.08954402 97.79682277 3.07971432 101.3395917 3.06866455 104.88238525 C3.05844899 108.49515227 3.0538706 112.10792584 3.04882812 115.72070312 C3.03809198 122.8138188 3.02101636 129.90690674 3 137 C2.34 137.33 1.68 137.66 1 138 C0.24293283 103.93410734 -0.09535404 69.88624509 -0.0625 35.8125 C-0.06164398 34.91833752 -0.06078796 34.02417503 -0.05990601 33.10291672 C-0.04855399 22.06859027 -0.02853479 11.03429522 0 0 Z " fill="#247DF7" transform="translate(5,137)"/>
<path d="M0 0 C-0.33 0.66 -0.66 1.32 -1 2 C-3.83487005 2.66631561 -6.63775578 3.23047452 -9.5 3.75 C-33.1710727 8.39371474 -51.19521744 18.1508116 -68.58203125 34.79296875 C-76.17931223 42 -76.17931223 42 -79 42 C-80.67745682 42.63903117 -82.34561387 43.30341637 -84 44 C-65.771093 21.33703454 -30.16497617 -0.98901561 0 0 Z " fill="#369DF7" transform="translate(124,4)"/>
<path d="M0 0 C12.61262195 -0.48167015 24.56873316 0.95471572 37 3 C34 5 34 5 31.3125 4.625 C30.1678125 4.315625 30.1678125 4.315625 29 4 C29 4.66 29 5.32 29 6 C30.11375 6.103125 31.2275 6.20625 32.375 6.3125 C46.12504467 8.07347063 58.6838542 14.2642893 70 22 C70.96035156 22.63808594 71.92070313 23.27617187 72.91015625 23.93359375 C78.14549112 27.47536038 78.14549112 27.47536038 80 29 C80 29.66 80 30.32 80 31 C76.78234059 29.55842487 74.00519332 27.64744699 71.12817383 25.62329102 C60.34555304 18.09802246 49.14388151 12.61256247 36.24609375 9.8125 C32.91214228 8.97800914 29.74772799 7.90274782 26.51074219 6.75854492 C17.6635332 3.63189887 9.36133602 1.80082226 0 1 C0 0.67 0 0.34 0 0 Z " fill="#2196F4" transform="translate(495,3)"/>
<path d="M0 0 C5.12926957 0.50271555 8.87739209 2.32529952 13.1875 5 C13.84314941 5.40154297 14.49879883 5.80308594 15.17431641 6.21679688 C24.87650368 12.28569372 33.10409233 19.7531631 41 28 C40.67 28.66 40.34 29.32 40 30 C39.36835937 29.32195313 38.73671875 28.64390625 38.0859375 27.9453125 C27.77562455 17.2190215 16.5933135 9.12445993 3 3 C3.15984375 3.55429687 3.3196875 4.10859375 3.484375 4.6796875 C5.2225854 12.50163428 4.25504877 20.71428536 1 28 C-0.52018791 30.26670876 -2.0851086 32.03335478 -4 34 C-4 30.48523762 -3.03170216 28.83174416 -1.5 25.6875 C2.09857893 17.33147773 2.00696605 8.80103965 0 0 Z " fill="#66D2F9" transform="translate(549,29)"/>
<path d="M0 0 C0.33 0 0.66 0 1 0 C1.01030746 0.69411484 1.02061493 1.38822968 1.03123474 2.1033783 C1.12964462 8.67876451 1.23221636 15.25407152 1.33933926 21.82932186 C1.3942546 25.20885706 1.44762025 28.58840125 1.49731445 31.96801758 C1.55538236 35.8628684 1.61897021 39.75759685 1.68359375 43.65234375 C1.70030624 44.8526976 1.71701874 46.05305145 1.73423767 47.28977966 C1.8213872 52.27314393 1.95524714 57.18695165 2.54321289 62.13891602 C2.98065755 65.83650406 2.78330228 68.39680951 2 72 C1.66140041 74.33257494 1.3267961 76.66574212 1 79 C0.67 79 0.34 79 0 79 C0 52.93 0 26.86 0 0 Z " fill="#137CF5" transform="translate(5,137)"/>
<path d="M0 0 C-0.33 0.66 -0.66 1.32 -1 2 C-3.83487005 2.66631561 -6.63775578 3.23047452 -9.5 3.75 C-25.15978757 6.82208665 -40.13577464 11.99446499 -53.30859375 21.1796875 C-55 22 -55 22 -58 21 C-42.54117356 10.39321397 -19.27089527 -1.24579525 0 0 Z " fill="#45B1F7" transform="translate(124,4)"/>
<path d="M0 0 C16.70842825 -0.18451025 16.70842825 -0.18451025 25 1 C24.01 1.66 23.02 2.32 22 3 C22.99 3.66 23.98 4.32 25 5 C24.21367188 4.86722656 23.42734375 4.73445312 22.6171875 4.59765625 C18.12325732 3.85513863 13.62445794 3.14562252 9.125 2.4375 C7.80628906 2.22963867 7.80628906 2.22963867 6.4609375 2.01757812 C4.30732866 1.67815064 2.15366941 1.33904301 0 1 C0 0.67 0 0.34 0 0 Z " fill="#3AAFF4" transform="translate(495,3)"/>
<path d="M0 0 C0.66 0 1.32 0 2 0 C1.85904936 1.6254308 1.71207913 3.25034051 1.5625 4.875 C1.48128906 5.77992187 1.40007813 6.68484375 1.31640625 7.6171875 C1 10 1 10 0 12 C-0.99 12 -1.98 12 -3 12 C-2.88601335 10.37419034 -2.75844341 8.74932843 -2.625 7.125 C-2.55539062 6.22007813 -2.48578125 5.31515625 -2.4140625 4.3828125 C-2 2 -2 2 0 0 Z " fill="#1E8DF6" transform="translate(14,94)"/>
<path d="M0 0 C0.33 0 0.66 0 1 0 C1.62925559 5.03404473 1.10379244 7.35011137 -2 11.4375 C-2.98419741 12.63812971 -3.97919926 13.83033248 -5 15 C-5 11.37149374 -3.93046332 9.13832722 -2.5 5.8125 C-2.0359375 4.72582031 -1.571875 3.63914063 -1.09375 2.51953125 C-0.7328125 1.68808594 -0.371875 0.85664062 0 0 Z " fill="#5DCFFA" transform="translate(550,48)"/>
<path d="M0 0 C11.52164009 1.92710706 11.52164009 1.92710706 17 4 C17 4.33 17 4.66 17 5 C12.38744478 5.18088452 9.19880464 4.8784126 5 3 C3.34080104 2.63128912 1.6752357 2.28718326 0 2 C0 1.34 0 0.68 0 0 Z " fill="#3193F5" transform="translate(534,7)"/>
<path d="M0 0 C0.56203125 0.22558594 1.1240625 0.45117188 1.703125 0.68359375 C0.10689844 1.71679856 -1.49916606 2.73481804 -3.109375 3.74609375 C-4.44935547 4.59880859 -4.44935547 4.59880859 -5.81640625 5.46875 C-8.296875 6.68359375 -8.296875 6.68359375 -11.296875 5.68359375 C-9.89135201 4.64747104 -8.47195806 3.6301445 -7.046875 2.62109375 C-6.25796875 2.05261719 -5.4690625 1.48414062 -4.65625 0.8984375 C-2.296875 -0.31640625 -2.296875 -0.31640625 0 0 Z " fill="#41ACF8" transform="translate(77.296875,19.31640625)"/>
<path d="M0 0 C0.66 0.33 1.32 0.66 2 1 C-4.28571429 6.42857143 -4.28571429 6.42857143 -8 8 C-6.88333826 4.65001479 -6.25305075 4.20659778 -3.4375 2.3125 C-2.79683594 1.87550781 -2.15617187 1.43851563 -1.49609375 0.98828125 C-1.00238281 0.66214844 -0.50867188 0.33601562 0 0 Z " fill="#2259C4" transform="translate(464,252)"/>
<path d="M0 0 C1.32 0.33 2.64 0.66 4 1 C3.67 2.65 3.34 4.3 3 6 C2.01 6 1.02 6 0 6 C0 4.02 0 2.04 0 0 Z " fill="#2893F5" transform="translate(11,100)"/>
<path d="M0 0 C1.2077558 3.62326739 0.54311128 4.64146369 -1 8 C-1.33 6.68 -1.66 5.36 -2 4 C-2.99 4.33 -3.98 4.66 -5 5 C-4.67 4.01 -4.34 3.02 -4 2 C-2.68 2 -1.36 2 0 2 C0 1.34 0 0.68 0 0 Z " fill="#309EF8" transform="translate(18,90)"/>
</svg>
