<?xml version="1.0" encoding="UTF-8"?>
<svg version="1.1" xmlns="http://www.w3.org/2000/svg" width="664" height="645">
<path d="M0 0 C1.5946496 -0.00258694 3.18929856 -0.00560101 4.78394663 -0.0090034 C9.15074474 -0.01703823 13.51752637 -0.018861 17.88433099 -0.01960087 C22.60033114 -0.02145761 27.31632287 -0.02900812 32.03231812 -0.03573608 C42.33851617 -0.0492956 52.64471032 -0.0553406 62.95091581 -0.05974674 C69.39269944 -0.06251358 75.83448157 -0.06675177 82.27626419 -0.07125092 C100.12987104 -0.0834412 117.98347671 -0.09374052 135.83708763 -0.09712601 C137.54984373 -0.09745536 137.54984373 -0.09745536 139.29720096 -0.09779136 C140.44169415 -0.09800964 141.58618734 -0.09822791 142.76536214 -0.09845281 C145.08434828 -0.09889626 147.40333442 -0.09934283 149.72232056 -0.09979248 C151.44774824 -0.10012463 151.44774824 -0.10012463 153.20803304 -0.10046348 C171.83117248 -0.10440835 190.45427272 -0.12185397 209.07739703 -0.145152 C228.22131534 -0.16890717 247.36521401 -0.18132978 266.50914729 -0.18249393 C277.24804675 -0.18340842 287.98689515 -0.18910369 298.72578049 -0.20731354 C307.87339037 -0.22277093 317.0209334 -0.22780194 326.16855387 -0.21957543 C330.82913388 -0.21568862 335.4895795 -0.21650134 340.15014267 -0.23063278 C381.98460426 -0.35023294 381.98460426 -0.35023294 401.50308228 5.89044189 C402.32711548 6.14720703 403.15114868 6.40397217 404.00015259 6.66851807 C442.3219145 18.96298529 473.66851025 44.59932556 492.47915649 80.23980713 C499.31236655 93.77555648 503.74514359 108.22035264 506.31558228 123.14044189 C506.48177629 124.08420465 506.64797031 125.0279674 506.81920052 126.00032902 C507.59068955 131.4815637 507.54943923 137.00198194 507.62731934 142.52775574 C507.64778297 143.75934406 507.6682466 144.99093238 507.68933034 146.25984156 C507.74352107 149.63124144 507.79325239 153.0026396 507.84005633 156.37414594 C507.87002284 158.51289132 507.90148524 160.65161028 507.93330359 162.79032886 C508.37707737 192.8618944 508.46500891 222.93218458 508.45088268 253.0066737 C508.44854381 258.12296449 508.44833424 263.23925196 508.44939804 268.35554314 C508.44962789 269.473947 508.44962789 269.473947 508.44986238 270.61494489 C508.45018228 272.13212403 508.4505065 273.64930318 508.45083497 275.16648232 C508.45363772 289.14973299 508.45048329 303.13297693 508.44503461 317.11622649 C508.44054022 329.01907698 508.44137421 340.92191774 508.44595337 352.82476807 C508.45133948 366.83069277 508.45339528 380.83661175 508.45034111 394.84253734 C508.45002271 396.34211186 508.44970833 397.84168639 508.44939804 399.34126091 C508.44924377 400.07814995 508.44908949 400.81503898 508.44893054 401.57425799 C508.44807973 406.67954282 508.44951681 411.78482385 508.45187759 416.89010811 C508.49268167 514.14527162 508.49268167 514.14527162 499.31558228 543.14044189 C498.99315552 544.16742187 498.99315552 544.16742187 498.66421509 545.21514893 C492.87113285 563.15292151 482.97266499 578.47680141 471.31558228 593.14044189 C470.61433228 594.04665283 469.91308228 594.95286377 469.19058228 595.88653564 C467.46605408 597.95956224 465.74804509 599.65692004 463.69058228 601.39044189 C461.44504216 603.29812093 459.24044722 605.21160155 457.10073853 607.23809814 C428.95892996 633.78785764 390.91881756 645.29498193 352.89295959 645.28761292 C351.3388461 645.29091782 349.78473345 645.29464469 348.23062187 645.29875439 C343.98028292 645.30871161 339.72995808 645.312481 335.47960913 645.3151437 C330.88689242 645.31906561 326.2941867 645.32864263 321.70147705 645.33735657 C310.61903588 645.35706939 299.53659387 645.36718124 288.45413956 645.37608436 C283.22385655 645.38047633 277.99357454 645.38584082 272.76329231 645.39107323 C255.35659082 645.40808138 237.94988994 645.42257251 220.54318142 645.42982197 C216.03152401 645.43173159 211.51986661 645.43365196 207.00820923 645.43560791 C205.32636389 645.43633352 205.32636389 645.43633352 203.61054189 645.43707379 C185.47326206 645.4453628 167.33604842 645.47068248 149.19879746 645.50318859 C130.5407241 645.53635305 111.88268427 645.55427924 93.2245813 645.55746621 C82.76382435 645.55962279 72.30316389 645.56824559 61.84243584 645.59392738 C52.92813644 645.61576316 44.01395698 645.62362215 35.09963387 645.6139606 C30.56180132 645.60945268 26.02421556 645.61109411 21.48641777 645.63072205 C-26.98939567 645.82865743 -69.51356102 636.27519077 -105.68441772 602.14044189 C-106.42176147 601.46755127 -107.15910522 600.79466064 -107.91879272 600.10137939 C-119.31147019 589.31469541 -127.50391388 575.97036875 -134.68441772 562.14044189 C-135.51586304 560.55876221 -135.51586304 560.55876221 -136.36410522 558.94512939 C-148.0440396 535.28267167 -150.83683507 508.98877754 -150.83158875 482.95065308 C-150.83489582 481.44629777 -150.83862314 479.94194334 -150.84273022 478.43759 C-150.85266199 474.33419831 -150.85645261 470.23082123 -150.85911953 466.12741923 C-150.8630489 461.68953387 -150.872625 457.25165981 -150.8813324 452.81378174 C-150.9010199 442.11335966 -150.91115184 431.41293675 -150.92006019 420.71250111 C-150.92445456 415.66164945 -150.92981825 410.61079882 -150.93504906 405.55994797 C-150.95205136 388.75107097 -150.96654395 371.94219459 -150.9737978 355.13331032 C-150.97570738 350.77940495 -150.97762776 346.42549959 -150.97958374 342.07159424 C-150.98006748 340.98958608 -150.98055122 339.90757792 -150.98104962 338.79278164 C-150.98934432 321.277621 -151.01467628 303.76252877 -151.04716442 286.24739797 C-151.08031358 268.22773275 -151.09825352 250.20810221 -151.10144204 232.18840635 C-151.10359955 222.0860369 -151.11223674 211.98376732 -151.13790321 201.88142776 C-151.15971763 193.27597538 -151.16760811 184.67064715 -151.15793643 176.06517024 C-151.15342303 171.68363771 -151.15510309 167.30236078 -151.17469788 162.92086411 C-151.38016632 114.22637663 -139.66271621 76.14306427 -105.24691772 40.51544189 C-77.47931354 13.44202781 -38.19367978 -0.02486287 0 0 Z " fill="#186CE3" transform="translate(152.68441772460938,-0.14044189453125)"/>
<path d="M0 0 C1.61442993 -0.00046829 1.61442993 -0.00046829 3.26147461 -0.00094604 C38.41611309 0.07674934 72.02200634 6.51442374 104.875 19 C105.59292725 19.26852783 106.31085449 19.53705566 107.05053711 19.8137207 C111.43993209 21.52889798 115.30667484 23.62786239 119.25610352 26.19458008 C121.05989419 27.35538128 122.88623227 28.42574349 124.7578125 29.47265625 C134.20325101 34.82200613 142.20949357 41.10175791 150.1875 48.4375 C151.00863281 49.16453125 151.82976562 49.8915625 152.67578125 50.640625 C164.04158373 61.21909835 171.97789635 74.92919039 177.1875 89.4375 C177.620625 90.61828125 178.05375 91.7990625 178.5 93.015625 C181.21637884 101.88158371 181.56288848 110.49960532 181.625 119.75 C181.63523193 120.93045898 181.64546387 122.11091797 181.65600586 123.32714844 C181.58076322 130.81352805 180.56103702 137.34178875 178.1875 144.4375 C177.81109375 145.57960937 177.4346875 146.72171875 177.046875 147.8984375 C172.42406366 160.04145601 166.70155077 170.60087824 158.1875 180.4375 C157.29998047 181.54158203 157.29998047 181.54158203 156.39453125 182.66796875 C142.23070597 199.7309992 120.08459205 212.45455833 100.25 221.625 C85.09207895 228.65840966 70.01156997 236.62049205 57.1875 247.4375 C56.18396484 248.2728125 56.18396484 248.2728125 55.16015625 249.125 C45.91696447 257.53893388 41.49860984 268.39911695 40.80859375 280.65625 C40.73939021 282.41637014 40.67823576 284.17682457 40.625 285.9375 C40.56536643 287.71889443 40.50178853 289.50016276 40.43359375 291.28125 C40.40966553 292.05662109 40.3857373 292.83199219 40.36108398 293.63085938 C40.1875 295.4375 40.1875 295.4375 39.1875 296.4375 C37.73741954 296.53960015 36.28241156 296.57268397 34.82875061 296.57794189 C33.88788101 296.58365204 32.94701141 296.58936218 31.97763062 296.59524536 C30.93708527 296.59636322 29.89653992 296.59748108 28.82446289 296.59863281 C27.19046288 296.60608017 27.19046288 296.60608017 25.52345276 296.61367798 C21.90234762 296.6283418 18.28128626 296.63510816 14.66015625 296.640625 C12.15530902 296.64637241 9.65046181 296.65213018 7.14561462 296.65789795 C2.56024816 296.66707286 -2.02510565 296.67336867 -6.61048025 296.6763947 C-13.36784874 296.68087809 -20.12501521 296.69843679 -26.88232225 296.7273953 C-32.72732193 296.75157828 -38.5722539 296.75933713 -44.41729927 296.76107025 C-46.90809797 296.76410769 -49.3988956 296.77217257 -51.88966179 296.78525543 C-55.36662184 296.80221631 -58.84308431 296.80046015 -62.32006836 296.79394531 C-63.35858948 296.8031601 -64.3971106 296.81237488 -65.46710205 296.8218689 C-66.41079147 296.81629974 -67.3544809 296.81073059 -68.32676697 296.80499268 C-69.14955108 296.80645924 -69.97233519 296.8079258 -70.82005215 296.8094368 C-71.47755994 296.68669765 -72.13506773 296.56395851 -72.8125 296.4375 C-75.49177341 292.41858988 -74.96851248 290.19588077 -74.8125 285.4375 C-75.4725 285.4375 -76.1325 285.4375 -76.8125 285.4375 C-77.42810205 257.44812657 -77.42810205 257.44812657 -73.8125 245.4375 C-73.37744141 243.78621094 -73.37744141 243.78621094 -72.93359375 242.1015625 C-64.7471819 212.71268647 -41.23804549 195.38283875 -16.0859375 180.76367188 C-14.13087251 179.6232173 -12.18738239 178.46699965 -10.25 177.296875 C-4.91234837 174.09984408 0.44355969 171.31716043 6.13671875 168.8125 C34.40446709 156.43519604 34.40446709 156.43519604 53.625 133.5625 C55.61342603 127.95875393 56.54562756 122.22194533 54.4921875 116.5 C53.52250009 114.67470606 52.43019257 113.08788981 51.1875 111.4375 C50.80980469 110.86386719 50.43210937 110.29023438 50.04296875 109.69921875 C44.44881741 102.07697629 34.60952349 97.2623903 25.3828125 95.82421875 C23.1875 95.4375 23.1875 95.4375 20.02929688 94.43212891 C14.02140783 92.87670568 8.01055083 93.10395938 1.84716797 93.12182617 C-0.41098389 93.12496316 -2.66779299 93.10156746 -4.92578125 93.07617188 C-13.94353089 93.03635445 -22.09446868 93.88669744 -30.8125 96.4375 C-31.5240625 96.64157471 -32.235625 96.84564941 -32.96875 97.0559082 C-48.59717598 101.83102819 -61.83060962 110.58817801 -70.8125 124.4375 C-71.26367188 125.11167969 -71.71484375 125.78585938 -72.1796875 126.48046875 C-75.54894785 131.95302477 -76.8921979 137.31687935 -78.0390625 143.6171875 C-78.8659416 146.6323729 -79.36581685 147.58439087 -81.8125 149.4375 C-83.90625 149.58642578 -83.90625 149.58642578 -86.3125 149.2578125 C-87.65248047 149.07847168 -87.65248047 149.07847168 -89.01953125 148.89550781 C-93.64033331 148.1377609 -98.22506254 147.24995069 -102.8125 146.3125 C-117.01225119 143.48363915 -131.28782768 141.15571783 -145.58007812 138.84912109 C-147.338542 138.56217652 -149.09700556 138.27522999 -150.85546875 137.98828125 C-151.65558884 137.86134384 -152.45570892 137.73440643 -153.28007507 137.60362244 C-157.90881086 136.8455595 -162.30827039 135.77490451 -166.8125 134.4375 C-168.46996439 134.078759 -170.13267002 133.74293122 -171.80078125 133.4375 C-172.67154297 133.2725 -173.54230469 133.1075 -174.43945312 132.9375 C-176.24869803 132.60065149 -178.05861393 132.26738956 -179.86914062 131.9375 C-180.73345703 131.7725 -181.59777344 131.6075 -182.48828125 131.4375 C-183.27114502 131.293125 -184.05400879 131.14875 -184.8605957 131 C-186.8125 130.4375 -186.8125 130.4375 -188.8125 128.4375 C-188.97949219 126.60913086 -188.97949219 126.60913086 -188.859375 124.40234375 C-188.79556641 123.18708008 -188.79556641 123.18708008 -188.73046875 121.94726562 C-188.67503906 121.09841797 -188.61960938 120.24957031 -188.5625 119.375 C-188.52253906 118.55322266 -188.48257813 117.73144531 -188.44140625 116.88476562 C-186.95195003 91.30234864 -174.09277839 68.71528173 -156.8125 50.4375 C-156.12542969 49.68597656 -155.43835938 48.93445313 -154.73046875 48.16015625 C-148.48762429 41.56984363 -141.34569602 36.43868511 -133.8125 31.4375 C-133.20720459 31.03152588 -132.60190918 30.62555176 -131.97827148 30.20727539 C-126.56717771 26.69030481 -120.88378239 24.00582737 -115 21.375 C-114.07896484 20.95412109 -113.15792969 20.53324219 -112.20898438 20.09960938 C-76.76840329 4.102986 -38.48256259 -0.02551801 0 0 Z " fill="#FDFDFD" transform="translate(333.8125,65.5625)"/>
<path d="M0 0 C0.33 0 0.66 0 1 0 C1.13130624 16.36097659 1.26173445 32.72195991 1.39115143 49.08295155 C1.45127804 56.68168781 1.5116791 64.28042169 1.57275391 71.87915039 C1.62606041 78.5114626 1.67882381 85.14377888 1.73096704 91.77610034 C1.75852823 95.27942037 1.78633956 98.78273797 1.81480408 102.2860508 C2.5334707 190.87886977 2.5334707 190.87886977 -7 221 C-7.32242676 222.02697998 -7.32242676 222.02697998 -7.65136719 223.07470703 C-13.44444943 241.01247962 -23.34291729 256.33635952 -35 271 C-36.051875 272.35931641 -36.051875 272.35931641 -37.125 273.74609375 C-38.84952819 275.81912035 -40.56753719 277.51647814 -42.625 279.25 C-44.87054012 281.15767903 -47.07513506 283.07115966 -49.21484375 285.09765625 C-77.37244086 311.6623111 -115.44186976 323.17712937 -153.48991394 323.13371277 C-155.051154 323.1355835 -156.61239359 323.13788524 -158.17363244 323.14057809 C-162.4432816 323.14667011 -166.71291111 323.14656557 -170.98256361 323.14538372 C-175.59553617 323.14517905 -180.20850253 323.15070475 -184.82147217 323.15544128 C-193.85161025 323.16373418 -202.8817418 323.16649551 -211.91188338 323.16705366 C-219.25514826 323.16752948 -226.59841099 323.16958749 -233.94167519 323.17275429 C-254.77953311 323.18155722 -275.6173859 323.18617424 -296.4552457 323.18542381 C-298.13896036 323.18536388 -298.13896036 323.18536388 -299.85668945 323.18530273 C-300.98054278 323.18526185 -302.10439611 323.18522097 -303.26230559 323.18517885 C-321.47098355 323.18477251 -339.67964081 323.19434016 -357.88831278 323.2084411 C-376.60283863 323.22281896 -395.31735441 323.22971051 -414.03188592 323.22884732 C-424.53141518 323.22851584 -435.03092274 323.23124171 -445.53044701 323.24202538 C-454.47062836 323.25114894 -463.41077818 323.25329041 -472.35096218 323.24651595 C-476.90773662 323.24326009 -481.46445064 323.24316017 -486.02121925 323.2518692 C-490.20174736 323.25977661 -494.38216755 323.25825988 -498.56269316 323.24958507 C-500.06601641 323.24805936 -501.56934788 323.24983072 -503.07266142 323.25544515 C-512.88600294 323.28963486 -522.31431879 322.53011974 -532 321 C-532.495 319.515 -532.495 319.515 -533 318 C-532.12770752 317.51926025 -532.12770752 317.51926025 -531.23779297 317.02880859 C-513.12108933 307.00808444 -495.63424603 296.19941033 -478.47851562 284.61645508 C-472.9940277 280.93825821 -467.35659306 277.52852953 -461.70581055 274.11352539 C-456.16754917 270.75200841 -450.74512525 267.24938361 -445.38476562 263.61132812 C-434.99893546 256.56946678 -424.27480744 250.03588819 -413.609375 243.4296875 C-412.0934375 242.48609375 -412.0934375 242.48609375 -410.546875 241.5234375 C-409.64807617 240.96575684 -408.74927734 240.40807617 -407.82324219 239.83349609 C-405.15760845 238.18788839 -405.15760845 238.18788839 -403.52780229 236.74943423 C-398.61299159 232.70398114 -394.71295519 232.28604435 -388.47795105 232.36749268 C-387.53824772 232.35984257 -386.59854438 232.35219245 -385.63036519 232.34431052 C-382.49170413 232.32475542 -379.35424333 232.34065546 -376.21557617 232.35644531 C-373.96165222 232.34962831 -371.70773402 232.34060571 -369.4538269 232.32954407 C-363.34055121 232.30565522 -357.22764012 232.31225685 -351.1143434 232.32403278 C-344.72106476 232.33087919 -338.32789029 232.30877919 -331.93464661 232.28948975 C-321.20387229 232.26085487 -310.47323529 232.24886582 -299.74243164 232.25048828 C-288.69683527 232.25209882 -277.65129579 232.24606551 -266.60571289 232.22802734 C-265.92466077 232.22691937 -265.24360866 232.22581139 -264.5419186 232.22466984 C-257.11043079 232.21238833 -249.67894711 232.19825238 -242.24746418 232.18333054 C-239.62724114 232.17810592 -237.00701809 232.17288358 -234.38679504 232.16766357 C-233.10812303 232.16505862 -231.82945102 232.16245367 -230.51203138 232.15976977 C-222.89147323 232.14509784 -215.27095629 232.13818647 -207.65038431 232.13801527 C-202.92161682 232.13737036 -198.19285694 232.13303013 -193.46409225 232.12804222 C-191.26378607 232.12667595 -189.06347802 232.12706326 -186.86317253 232.12928963 C-183.87113616 232.13217787 -180.87916365 232.12910027 -177.88713074 232.12457275 C-176.56649078 232.12822149 -176.56649078 232.12822149 -175.21917123 232.13194394 C-170.97498315 232.24117141 -170.97498315 232.24117141 -167 231 C-165.09290752 231.00629403 -163.18578595 231.01474126 -161.27880859 231.03662109 C-120.35892117 230.37902702 -76.86577165 210.37951822 -48 182 C-46.66001953 180.60394531 -46.66001953 180.60394531 -45.29296875 179.1796875 C-43 177 -43 177 -41 177 C-40.76410156 176.45085937 -40.52820313 175.90171875 -40.28515625 175.3359375 C-38.67314637 172.4059013 -36.64051157 170.14174248 -34.4375 167.625 C-24.98912992 156.51775578 -18.15886028 144.16423057 -12 131 C-11.4534375 129.84757813 -10.906875 128.69515625 -10.34375 127.5078125 C-3.31845896 111.98765424 -0.23532303 97.3997702 -0.546875 80.41015625 C-0.55880238 78.68779461 -0.56828789 76.96541457 -0.57550049 75.24302673 C-0.59994279 70.757125 -0.65355745 66.27208944 -0.71496582 61.78656006 C-0.79596077 55.48885023 -0.83708446 49.19073821 -0.88165283 42.89268494 C-0.90527526 39.55763071 -0.94012494 36.22303016 -0.98504639 32.88819885 C-1.1121203 21.88886304 -0.69508664 10.97730282 0 0 Z " fill="#0C2C97" transform="translate(659,322)"/>
<path d="M0 0 C2.19883971 3.29825957 3.15304323 6.49758081 4.25 10.25 C11.87073022 35.28791907 23.8385523 56.16067556 42 75 C42.59167969 75.64324219 43.18335938 76.28648437 43.79296875 76.94921875 C59.60415311 93.69736218 80.68105388 103.25699774 101.76171875 111.46484375 C102.83035156 111.88894531 103.89898437 112.31304688 105 112.75 C105.9075 113.09546875 106.815 113.4409375 107.75 113.796875 C110.51703035 115.27646762 111.44557997 116.25630619 113 119 C113.29367125 121.83993094 113.41718882 124.4617048 113.40063477 127.30102539 C113.41110336 128.55288383 113.41110336 128.55288383 113.42178345 129.83003235 C113.4417637 132.58600968 113.44126 135.34161293 113.44140625 138.09765625 C113.45317589 140.01290398 113.4665391 141.92814253 113.48143005 143.84336853 C113.51763279 148.88428037 113.53782387 153.9251108 113.55297852 158.96612549 C113.577802 167.03868948 113.61736833 175.11107357 113.67487907 183.18346977 C113.69123673 186.00590566 113.69498827 188.82817252 113.69789124 191.65065002 C113.70766518 193.37655939 113.71792807 195.10246609 113.72875977 196.82836914 C113.72620682 197.61546265 113.72365387 198.40255615 113.72102356 199.21350098 C113.75693997 203.01113116 113.84111565 204.76167347 116 208 C116 208.99 116 209.98 116 211 C108.93676998 211.38847765 103.97067701 210.3261119 97.5 207.5625 C96.63487793 207.20269043 95.76975586 206.84288086 94.87841797 206.47216797 C75.4861354 198.24029843 59.14892862 187.59442903 44 173 C43.29488281 172.35804688 42.58976562 171.71609375 41.86328125 171.0546875 C30.80679175 160.69343364 22.92457716 147.33700221 16 134 C15.44570313 132.94554687 14.89140625 131.89109375 14.3203125 130.8046875 C2.4232629 106.70237459 -0.192653 80.01157175 -0.09765625 53.515625 C-0.09578631 51.96335903 -0.09436513 50.41109246 -0.09336853 48.85882568 C-0.08958868 44.81476145 -0.07979828 40.77073434 -0.06866455 36.72668457 C-0.05835183 32.58341982 -0.05384999 28.44014895 -0.04882812 24.296875 C-0.03817096 16.19789982 -0.02115048 8.09895455 0 0 Z " fill="#0E31A2" transform="translate(2,428)"/>
<path d="M0 0 C10.49524113 9.1256042 18.11191582 19.17033305 19.63671875 33.43359375 C19.88568116 46.84644333 15.59290915 59.24327041 6.22265625 69.125 C-9.38786993 83.46056289 -29.05139573 87.88836906 -49.70703125 87.2109375 C-65.35947681 86.31853901 -79.72829398 80.94350146 -91.73828125 70.92578125 C-92.46917969 70.33152344 -93.20007813 69.73726563 -93.953125 69.125 C-101.79518838 62.09574166 -107.2071766 51.53487666 -107.94140625 41.015625 C-108.16722247 25.82948418 -104.33519356 15.80756526 -93.98828125 4.73828125 C-70.19892537 -17.82294345 -26.19542491 -19.84275411 0 0 Z " fill="#FCFDFD" transform="translate(364.73828125,390.07421875)"/>
<path d="M0 0 C1.56854749 0.00056573 3.13709551 0.0002444 4.7056427 -0.00088501 C8.91753699 -0.00145321 13.12931476 0.01021361 17.34118223 0.02426291 C21.76005158 0.03686025 26.1789243 0.0379478 30.59780884 0.04031372 C38.94491154 0.04650225 47.29196115 0.06287709 55.63904059 0.0830127 C65.1506641 0.105454 74.6622903 0.11638573 84.17393374 0.12640357 C103.72096627 0.14724598 123.26794955 0.18237025 142.81494141 0.22705078 C142.81494141 0.88705078 142.81494141 1.54705078 142.81494141 2.22705078 C134.84257317 2.3587852 126.87018567 2.48925971 118.89777184 2.61820221 C115.19437032 2.67813745 111.49097642 2.73847852 107.78759766 2.79980469 C104.20197736 2.85916493 100.61634007 2.91738396 97.03068924 2.97486877 C95.02259339 3.00734318 93.0145159 3.04094692 91.00643921 3.07458496 C83.5472015 3.19308491 76.09774693 3.22687418 68.6378479 3.13708496 C65.73472991 3.09498341 65.73472991 3.09498341 62.81494141 4.22705078 C61.1346064 4.37566386 59.4496587 4.47485502 57.76416016 4.54345703 C56.75417969 4.58535156 55.74419922 4.62724609 54.70361328 4.67041016 C53.64722656 4.70972656 52.59083984 4.74904297 51.50244141 4.78955078 C50.48859375 4.83273438 49.47474609 4.87591797 48.43017578 4.92041016 C39.43646351 5.27698906 30.45410749 5.26187815 21.45483398 5.20629883 C4.3704291 5.17241365 -10.18250814 7.23452436 -26.18505859 13.22705078 C-27.54807066 13.70958265 -28.91132824 14.19142195 -30.27490234 14.67236328 C-39.29167523 18.04042146 -47.78084008 22.43141346 -56.26318359 26.95751953 C-56.94799805 27.32256592 -57.6328125 27.6876123 -58.33837891 28.0637207 C-60.26636601 29.27827102 -61.70747467 30.49402207 -63.18505859 32.22705078 C-63.40494727 34.27668961 -63.40494727 34.27668961 -62.99755859 36.53955078 C-62.88154297 37.40966797 -62.76552734 38.27978516 -62.64599609 39.17626953 C-62.49388672 40.18302734 -62.34177734 41.18978516 -62.18505859 42.22705078 C-62.01232422 43.47099609 -61.83958984 44.71494141 -61.66162109 45.99658203 C-61.18448486 49.40914339 -60.69091679 52.81864698 -60.18505859 56.22705078 C-59.52505859 56.22705078 -58.86505859 56.22705078 -58.18505859 56.22705078 C-58.18505859 57.21705078 -58.18505859 58.20705078 -58.18505859 59.22705078 C-57.62818359 59.45392578 -57.07130859 59.68080078 -56.49755859 59.91455078 C-54.18505859 61.22705078 -54.18505859 61.22705078 -52.24755859 63.66455078 C-44.68200393 69.99491285 -31.72434185 70.01139999 -22.18505859 71.22705078 C-21.52505859 72.87705078 -20.86505859 74.52705078 -20.18505859 76.22705078 C-21.58304688 76.39140625 -21.58304688 76.39140625 -23.00927734 76.55908203 C-26.39356723 76.97997956 -29.76715003 77.43763455 -33.14111328 77.93261719 C-34.99937106 78.20030219 -36.86162604 78.43986012 -38.72412109 78.67626953 C-47.57173956 80.16494997 -52.88536496 83.98345408 -58.18505859 91.22705078 C-61.4997116 97.61343896 -62.43887137 104.23201471 -63.55810547 111.28369141 C-63.71214844 112.14800781 -63.86619141 113.01232422 -64.02490234 113.90283203 C-64.15243896 114.6856958 -64.27997559 115.46855957 -64.41137695 116.27514648 C-65.18505859 118.22705078 -65.18505859 118.22705078 -67.25756836 119.49731445 C-68.21167603 119.85853394 -68.21167603 119.85853394 -69.18505859 120.22705078 C-69.29052002 119.6432666 -69.39598145 119.05948242 -69.50463867 118.45800781 C-69.99642448 115.75492031 -70.49694984 113.05351764 -70.99755859 110.35205078 C-71.16320312 109.43423828 -71.32884766 108.51642578 -71.49951172 107.57080078 C-73.12042213 96.21073931 -73.12042213 96.21073931 -78.74755859 86.78955078 C-79.55193359 86.27392578 -80.35630859 85.75830078 -81.18505859 85.22705078 C-81.84505859 84.23705078 -82.50505859 83.24705078 -83.18505859 82.22705078 C-91.20910475 78.00880222 -103.27013173 76.35452602 -112.18505859 77.22705078 C-113.95182881 78.69310386 -113.95182881 78.69310386 -115.06005859 80.72705078 C-115.67494141 81.70158203 -115.67494141 81.70158203 -116.30224609 82.69580078 C-116.59357422 83.20111328 -116.88490234 83.70642578 -117.18505859 84.22705078 C-117.51505859 83.56705078 -117.84505859 82.90705078 -118.18505859 82.22705078 C-117.24926864 79.86723265 -116.25158052 77.53073814 -115.18505859 75.22705078 C-116.17505859 74.89705078 -117.16505859 74.56705078 -118.18505859 74.22705078 C-117.19505859 74.22705078 -116.20505859 74.22705078 -115.18505859 74.22705078 C-115.18505859 73.56705078 -115.18505859 72.90705078 -115.18505859 72.22705078 C-118.81391184 72.0755578 -118.81391184 72.0755578 -122.18505859 73.22705078 C-119.65024812 65.11565727 -113.0875814 58.86303718 -107.47412109 52.74267578 C-106.00639202 51.12967659 -104.56123468 49.49567102 -103.14599609 47.83642578 C-99.20230469 43.2171219 -95.15367866 39.39792298 -90.27099609 35.78173828 C-88.51157023 34.4704059 -86.83647527 33.04704038 -85.18505859 31.60205078 C-80.40270122 27.81601786 -75.2181536 24.48280811 -69.18505859 23.22705078 C-69.18505859 22.56705078 -69.18505859 21.90705078 -69.18505859 21.22705078 C-55.92577334 14.53798754 -42.0249671 8.28617684 -27.18505859 6.22705078 C-27.18505859 5.56705078 -27.18505859 4.90705078 -27.18505859 4.22705078 C-28.17505859 3.56705078 -29.16505859 2.90705078 -30.18505859 2.22705078 C-20.06104302 0.4831347 -10.25380578 -0.05262499 0 0 Z " fill="#4EDFFB" transform="translate(153.18505859375,-0.22705078125)"/>
<path d="M0 0 C-0.33 0.99 -0.66 1.98 -1 3 C-3.32824985 3.98537542 -5.52925734 4.77244652 -7.9375 5.5 C-8.62191162 5.71865723 -9.30632324 5.93731445 -10.01147461 6.16259766 C-13.67354 7.32366676 -17.3545021 8.37049221 -21.0625 9.375 C-26.11345187 10.8290619 -30.64687925 13.19931783 -35.26782227 15.66357422 C-38.07429488 17.14233433 -39.77374581 18 -43 18 C-43 18.66 -43 19.32 -43 20 C-43.81791016 20.43699219 -43.81791016 20.43699219 -44.65234375 20.8828125 C-52.77756841 25.29960129 -60.22825886 30.06869168 -67.09765625 36.28515625 C-68.87979881 37.89164615 -70.70920329 39.41441206 -72.5625 40.9375 C-76.46275229 44.28183398 -79.71886622 48.05837826 -83 52 C-83.61617187 52.70511719 -84.23234375 53.41023438 -84.8671875 54.13671875 C-104.97991523 77.92466379 -115.84313692 108.37226605 -119 139 C-119.08601471 139.8260675 -119.17202942 140.65213501 -119.26065063 141.50323486 C-120.29375421 152.98738687 -120.22966897 164.49780972 -120.31640625 176.01953125 C-120.33701318 178.33266031 -120.35801053 180.64578593 -120.37937927 182.95890808 C-120.43421427 189.00693953 -120.48379144 195.05500275 -120.53222656 201.10308838 C-120.58272569 207.29075909 -120.6382625 213.47838444 -120.69335938 219.66601562 C-120.80046817 231.77730487 -120.9020154 243.88863374 -121 256 C-121.33 256 -121.66 256 -122 256 C-122.33 233.23 -122.66 210.46 -123 187 C-123.33 187 -123.66 187 -124 187 C-124 170.5 -124 154 -124 137 C-124.33 137 -124.66 137 -125 137 C-126.13786665 99.45040054 -105.87979974 65.54286888 -81.2265625 39.09765625 C-62.18595026 19.38659992 -28.10203777 -1.00364421 0 0 Z " fill="#1FB6FA" transform="translate(127,3)"/>
<path d="M0 0 C0.66 0 1.32 0 2 0 C2.10022461 0.55349121 2.20044922 1.10698242 2.30371094 1.67724609 C4.52524721 19.3960827 4.52524721 19.3960827 14 33.5 C19.40655483 37.13252902 23.56102138 38.35610214 30 39 C30 39.66 30 40.32 30 41 C30.99 41.33 31.98 41.66 33 42 C31.9378125 42.27972656 30.875625 42.55945313 29.78125 42.84765625 C17.92790144 45.99885493 17.92790144 45.99885493 9 54 C5.82884042 60.02274494 3.64810604 66.40757584 2 73 C1.01 72.01 1.01 72.01 0 71 C0 69.68 0 68.36 0 67 C-0.66 67 -1.32 67 -2 67 C-3.62282735 63.38552091 -4.9570269 60.18110093 -5.875 56.3125 C-7.2715675 52.20038458 -8.26977595 51.20768362 -12 49 C-18.801485 46.02709285 -25.69077553 44.20499145 -33 43 C-32.67 42.01 -32.34 41.02 -32 40 C-30.20581055 39.26391602 -30.20581055 39.26391602 -27.88671875 38.75390625 C-27.05076172 38.55603516 -26.21480469 38.35816406 -25.35351562 38.15429688 C-23.58816625 37.76242811 -21.82254413 37.3717859 -20.05664062 36.98242188 C-15.20266513 35.83132561 -12.28930218 34.98267693 -9 31 C-8.34 31 -7.68 31 -7 31 C-6.34 29.68 -5.68 28.36 -5 27 C-4.34 27 -3.68 27 -3 27 C-3.061875 25.700625 -3.12375 24.40125 -3.1875 23.0625 C-3.22131137 15.25207268 -1.48810479 7.63539481 0 0 Z " fill="#F8FDFD" transform="translate(84,32)"/>
<path d="M0 0 C0.33 0 0.66 0 1 0 C1 18.48 1 36.96 1 56 C1.33 56 1.66 56 2 56 C2.90491734 99.29454818 3.13634016 142.59102272 3.17937243 185.89375943 C3.18474018 190.88917823 3.19531199 195.88456931 3.20800781 200.87997437 C3.22513746 207.71214145 3.23089802 214.54424251 3.22919655 221.37643051 C3.2300371 223.92797044 3.23420587 226.47951169 3.24188805 229.03104019 C3.2516982 232.55893395 3.24888514 236.08660442 3.24291992 239.61450195 C3.24854195 240.64115054 3.25416397 241.66779913 3.25995636 242.72555828 C3.23353996 248.78579474 2.52593985 254.12999847 1 260 C0.67 260 0.34 260 0 260 C-0.86313013 206.48579864 -1.16163384 152.98325553 -1.12856841 99.4624908 C-1.12415472 91.46036055 -1.12738599 83.45824563 -1.1321975 75.45611632 C-1.13672962 67.59634353 -1.13738268 59.73657743 -1.13475883 51.87680376 C-1.1332136 47.24488796 -1.13295622 42.61298274 -1.13629532 37.98106766 C-1.13917997 33.69064002 -1.13718763 29.40024194 -1.13140106 25.1098175 C-1.13008249 23.54528731 -1.13045221 21.98075462 -1.13266373 20.41622543 C-1.13540734 18.27921005 -1.13195668 16.14228895 -1.12698364 14.00527954 C-1.12660662 12.8138566 -1.12622959 11.62243366 -1.12584114 10.394907 C-0.99517847 6.86992607 -0.55930621 3.48062931 0 0 Z " fill="#1A76F5" transform="translate(3,133)"/>
<path d="M0 0 C1.75739832 0.00138269 1.75739832 0.00138269 3.55029964 0.00279331 C4.20043889 0.00193889 4.85057814 0.00108446 5.52041858 0.00020415 C7.71464604 -0.00145243 9.90879826 0.00407358 12.10301876 0.00952244 C13.66964879 0.0098043 15.23627895 0.0096466 16.8029089 0.00907993 C21.06925401 0.00879191 25.33557126 0.0146894 29.60190988 0.02165389 C34.05556076 0.02788665 38.50921221 0.02849116 42.96286678 0.0296793 C51.40246468 0.03279285 59.84204969 0.04100655 68.2816419 0.05102879 C77.88728468 0.0621892 87.49292806 0.06770019 97.09857571 0.07272422 C116.86365443 0.08318914 136.62872153 0.10078904 156.39379025 0.12304783 C156.39379025 0.78304783 156.39379025 1.44304783 156.39379025 2.12304783 C148.42142201 2.25478225 140.4490345 2.38525676 132.47662067 2.51419926 C128.77321916 2.57413449 125.06982526 2.63447557 121.3664465 2.69580173 C117.7808262 2.75516198 114.19518891 2.81338101 110.60953808 2.87086582 C108.60144223 2.90334023 106.59336474 2.93694396 104.58528805 2.97058201 C97.12605034 3.08908195 89.67659577 3.12287123 82.21669674 3.03308201 C79.31357875 2.99098046 79.31357875 2.99098046 76.39379025 4.12304783 C74.71345524 4.2716609 73.02850754 4.37085207 71.343009 4.43945408 C70.33302853 4.48134861 69.32304806 4.52324314 68.28246212 4.5664072 C67.2260754 4.60572361 66.16968868 4.64504002 65.08129025 4.68554783 C64.06744259 4.72873142 63.05359493 4.77191502 62.00902462 4.8164072 C53.01531235 5.1729861 44.03295632 5.1578752 35.03368282 5.10229588 C16.6912733 5.06591557 0.23892397 7.20135774 -16.5554285 14.91211033 C-19.60620975 16.12304783 -19.60620975 16.12304783 -22.60620975 15.12304783 C-17.00708234 12.56974204 -11.3899901 10.22624068 -5.60620975 8.12304783 C-5.60620975 7.46304783 -5.60620975 6.80304783 -5.60620975 6.12304783 C-7.91620975 5.79304783 -10.22620975 5.46304783 -12.60620975 5.12304783 C-11.94620975 4.13304783 -11.28620975 3.14304783 -10.60620975 2.12304783 C-8.28464378 1.71575555 -5.94933106 1.37866106 -3.60620975 1.12304783 C-2.60620975 0.12304783 -2.60620975 0.12304783 0 0 Z " fill="#27D7FB" transform="translate(139.60620975494385,-0.1230478286743164)"/>
<path d="M0 0 C1.92465864 5.77397591 -0.15906177 12.64560184 -2.5625 18.125 C-6.28475757 24.91182301 -12.34352365 30.22258496 -19 34 C-19.99 34.66 -20.98 35.32 -22 36 C-27.81118763 37.80347202 -32.93680939 38.25263294 -39 38 C-37.69605442 35.18632391 -36.26017623 32.9249502 -34.2421875 30.57421875 C-33.70295654 29.94580078 -33.16372559 29.31738281 -32.6081543 28.66992188 C-32.03621338 28.01572266 -31.46427246 27.36152344 -30.875 26.6875 C-30.28823486 26.01396484 -29.70146973 25.34042969 -29.09692383 24.64648438 C-25.01838245 20.02252726 -20.79416431 15.8805013 -16 12 C-14.66474361 10.79379206 -13.33144958 9.58540871 -12 8.375 C-8.26971228 5.09619551 -4.29489763 2.47870422 0 0 Z " fill="#20D3FA" transform="translate(82,34)"/>
<path d="M0 0 C6.15898549 0.66450593 12.30646923 1.36174075 18.4375 2.25 C19.23865234 2.34667969 20.03980469 2.44335938 20.86523438 2.54296875 C23.18359375 2.890625 23.18359375 2.890625 27 4 C28.53515625 6.609375 28.53515625 6.609375 29 9 C28.06800781 9.10957031 27.13601562 9.21914062 26.17578125 9.33203125 C22.79149136 9.75292878 19.41790857 10.21058377 16.04394531 10.70556641 C14.18568754 10.97325141 12.32343255 11.21280933 10.4609375 11.44921875 C1.61331903 12.93789918 -3.70030637 16.7564033 -9 24 C-12.31465301 30.38638818 -13.25381278 37.00496393 -14.37304688 44.05664062 C-14.60411133 45.35311523 -14.60411133 45.35311523 -14.83984375 46.67578125 C-14.96738037 47.45864502 -15.09491699 48.24150879 -15.22631836 49.0480957 C-16 51 -16 51 -18.07250977 52.27026367 C-19.02661743 52.63148315 -19.02661743 52.63148315 -20 53 C-20.11069824 52.410979 -20.22139648 51.82195801 -20.33544922 51.21508789 C-20.84711966 48.49727126 -21.36104772 45.77988601 -21.875 43.0625 C-22.04902344 42.13630859 -22.22304687 41.21011719 -22.40234375 40.25585938 C-23.49727022 34.47708076 -24.69421122 28.73488315 -26 23 C-23.49701566 25.93828597 -22.53069061 28.17902761 -22 32 C-21.34 32 -20.68 32 -20 32 C-19.34 33.32 -18.68 34.64 -18 36 C-17.75765625 35.13117188 -17.5153125 34.26234375 -17.265625 33.3671875 C-14.20537077 22.84462103 -10.72211584 15.65338895 -1 10 C2.9502561 8.65321401 6.89368334 7.72954865 11 7 C10.505 5.515 10.505 5.515 10 4 C9.0925 3.896875 8.185 3.79375 7.25 3.6875 C3.98038425 2.99585051 2.46282263 2.17865079 0 0 Z " fill="#3EC8FA" transform="translate(104,67)"/>
<path d="M0 0 C1.45928953 0.00028245 2.9185792 0.00012301 4.37786865 -0.0004425 C8.31943056 -0.00072823 12.26096175 0.00513215 16.20251656 0.01213145 C20.32914192 0.01840242 24.45576807 0.01897175 28.58239746 0.02015686 C36.38781699 0.02325916 44.19322243 0.03145767 51.99863577 0.04150635 C60.88861393 0.05270173 69.77859278 0.05818656 78.66857624 0.06320179 C96.94767859 0.07364123 115.22676785 0.09121929 133.50585938 0.11352539 C133.50585938 0.77352539 133.50585938 1.43352539 133.50585938 2.11352539 C124.94395137 2.33021607 116.38145398 2.51316248 107.81835938 2.67602539 C107.14970226 2.68875866 106.48104515 2.70149193 105.7921257 2.71461105 C77.21288945 3.24765997 48.64886297 3.02240281 20.06835938 2.67602539 C19.01021152 2.66321156 17.95206367 2.65039772 16.86185074 2.63719559 C3.7429847 2.47700908 -9.37565511 2.30224767 -22.49414062 2.11352539 C-22.49414062 1.78352539 -22.49414062 1.45352539 -22.49414062 1.11352539 C-15.0018091 -0.08003196 -7.57071834 -0.02058575 0 0 Z " fill="#11D1FA" transform="translate(162.494140625,-0.113525390625)"/>
<path d="M0 0 C0.33 0 0.66 0 1 0 C1 18.48 1 36.96 1 56 C1.33 56 1.66 56 2 56 C2.17598948 66.35402408 2.34189489 76.70818826 2.5 87.0625 C2.51187725 87.83997841 2.5237545 88.61745682 2.53599167 89.41849518 C2.90212761 113.57143587 3.09253976 137.71927967 3.0625 161.875 C3.06164398 162.56842121 3.06078796 163.26184242 3.05990601 163.9762764 C3.04881687 172.31754372 3.02922351 180.65877596 3 189 C2.67 189 2.34 189 2 189 C1.98969254 188.26972595 1.97938507 187.5394519 1.96876526 186.78704834 C1.87074113 179.90106277 1.76821969 173.01515722 1.66066074 166.12931442 C1.60552345 162.58933307 1.55211839 159.04934332 1.50268555 155.50927734 C1.44576415 151.43838687 1.38128443 147.3676465 1.31640625 143.296875 C1.29969376 142.02696716 1.28298126 140.75705933 1.26576233 139.44866943 C1.24581711 138.26774719 1.22587189 137.08682495 1.20532227 135.87011719 C1.18977798 134.83087097 1.1742337 133.79162476 1.15821838 132.72088623 C1.01775139 130.30527124 0.59744355 128.32670787 0 126 C-0.11206436 124.3271403 -0.17567951 122.65071225 -0.20532227 120.97436523 C-0.22525742 119.96174622 -0.24519257 118.9491272 -0.26573181 117.90582275 C-0.28245438 116.80123718 -0.29917694 115.69665161 -0.31640625 114.55859375 C-0.33727798 113.39140808 -0.35814972 112.22422241 -0.37965393 111.02166748 C-0.44631855 107.16034898 -0.50502917 103.29896567 -0.5625 99.4375 C-0.58334656 98.11964508 -0.60419312 96.80179016 -0.62567139 95.44400024 C-0.95278699 74.6922185 -1.10530457 53.94176267 -1.125 33.1875 C-1.1275882 31.91220428 -1.13017639 30.63690857 -1.13284302 29.32296753 C-1.13866731 25.70877232 -1.13714595 22.09466449 -1.1328125 18.48046875 C-1.13479141 17.41640808 -1.13677032 16.35234741 -1.1388092 15.25604248 C-1.12249488 10.06179559 -0.90439749 5.11788389 0 0 Z " fill="#1B8CF8" transform="translate(3,133)"/>
<path d="M0 0 C-0.33 0.99 -0.66 1.98 -1 3 C-3.32824985 3.98537542 -5.52925734 4.77244652 -7.9375 5.5 C-8.96411743 5.82798584 -8.96411743 5.82798584 -10.01147461 6.16259766 C-13.67354 7.32366676 -17.3545021 8.37049221 -21.0625 9.375 C-26.11345187 10.8290619 -30.64687925 13.19931783 -35.26782227 15.66357422 C-38.07429488 17.14233433 -39.77374581 18 -43 18 C-43.33 18.66 -43.66 19.32 -44 20 C-44 18.35 -44 16.7 -44 15 C-45.32 15.33 -46.64 15.66 -48 16 C-46.57626173 13.15252345 -44.85703669 12.93586545 -41.92578125 11.7578125 C-40.87189209 11.33290527 -39.81800293 10.90799805 -38.73217773 10.47021484 C-37.60368408 10.02629395 -36.47519043 9.58237305 -35.3125 9.125 C-34.17304932 8.67463379 -33.03359863 8.22426758 -31.85961914 7.76025391 C-9.93512259 -0.79480981 -9.93512259 -0.79480981 0 0 Z " fill="#18CFFA" transform="translate(127,3)"/>
<path d="M0 0 C2.31 0.33 4.62 0.66 7 1 C3.71754385 3.81468599 0.56166518 4.96291853 -3.5625 6.1875 C-4.69816406 6.53167969 -5.83382812 6.87585938 -7.00390625 7.23046875 C-10 8 -10 8 -13 8 C-13.38865234 8.87398437 -13.38865234 8.87398437 -13.78515625 9.765625 C-15.08535159 12.15698105 -16.55581925 13.79143337 -18.4375 15.75 C-24.51365147 22.595125 -25.61564817 30.14014826 -27 39 C-27.99 39 -28.98 39 -30 39 C-31.3271261 35.0186217 -31.06915913 31.14954773 -31 27 C-30.01 28.32 -29.02 29.64 -28 31 C-27.75765625 30.13117188 -27.5153125 29.26234375 -27.265625 28.3671875 C-24.20537077 17.84462103 -20.72211584 10.65338895 -11 5 C-7.0497439 3.65321401 -3.10631666 2.72954865 1 2 C0.67 1.34 0.34 0.68 0 0 Z " fill="#98E8FC" transform="translate(114,72)"/>
<path d="M0 0 C0.33 0 0.66 0 1 0 C1.19876297 3.83283505 1.38195792 7.66626688 1.5625 11.5 C1.61857422 12.57765625 1.67464844 13.6553125 1.73242188 14.765625 C1.96463473 19.84334613 2.05109915 24.61258334 1.27368164 29.65429688 C0.56580925 35.72141367 0.60715063 41.8967321 0.4375 48 C0.39422635 49.45704157 0.3506095 50.91407299 0.30664062 52.37109375 C0.20046698 55.91395412 0.09894889 59.45692963 0 63 C-0.33 63 -0.66 63 -1 63 C-1.33 47.82 -1.66 32.64 -2 17 C-2.33 17 -2.66 17 -3 17 C-2.54775239 11.08507728 -1.8417395 5.64800112 0 0 Z " fill="#0F2180" transform="translate(659,418)"/>
<path d="M0 0 C2.17153581 3.25730372 2.73806668 5.63474734 3.5625 9.4375 C3.81128906 10.57058594 4.06007813 11.70367187 4.31640625 12.87109375 C4.54199219 13.90363281 4.76757812 14.93617187 5 16 C5.32671101 17.33497146 5.6566744 18.66920459 6 20 C6.66 20 7.32 20 8 20 C8 20.99 8 21.98 8 23 C8.556875 23.226875 9.11375 23.45375 9.6875 23.6875 C12.66159588 25.37550036 14.72008865 27.46676517 17 30 C17 30.66 17 31.32 17 32 C18.98 32.66 20.96 33.32 23 34 C21.3125 34.66796875 21.3125 34.66796875 19 35 C16.5625 33.92578125 16.5625 33.92578125 14 32.3125 C13.154375 31.79300781 12.30875 31.27351563 11.4375 30.73828125 C6.70299695 27.36191289 4.54009323 24.65426094 2.8125 19.0625 C2.48894531 18.04285156 2.16539063 17.02320312 1.83203125 15.97265625 C0.28625818 10.44996468 -0.09670487 5.70558734 0 0 Z " fill="#61DEFC" transform="translate(87,36)"/>
<path d="M0 0 C0.69287109 0.00451172 1.38574219 0.00902344 2.09960938 0.01367188 C3.79561068 0.02536844 5.49156703 0.04330076 7.1875 0.0625 C5.8675 0.3925 4.5475 0.7225 3.1875 1.0625 C3.1875 1.7225 3.1875 2.3825 3.1875 3.0625 C2.19737915 3.3570105 2.19737915 3.3570105 1.18725586 3.6574707 C-1.83479434 4.55902561 -4.85489292 5.46695812 -7.875 6.375 C-8.91333984 6.68373047 -9.95167969 6.99246094 -11.02148438 7.31054688 C-17.55780546 9.28180573 -17.55780546 9.28180573 -23.87109375 11.85546875 C-26.8125 13.0625 -26.8125 13.0625 -29.8125 12.0625 C-24.21337258 9.50919421 -18.59628035 7.16569285 -12.8125 5.0625 C-12.8125 3.7425 -12.8125 2.4225 -12.8125 1.0625 C-8.52952469 0.00630997 -4.38264354 -0.05452092 0 0 Z " fill="#32DEFA" transform="translate(146.8125,2.9375)"/>
<path d="M0 0 C6.15898549 0.66450593 12.30646923 1.36174075 18.4375 2.25 C19.23865234 2.34667969 20.03980469 2.44335938 20.86523438 2.54296875 C23.18359375 2.890625 23.18359375 2.890625 27 4 C27.66 5.65 28.32 7.3 29 9 C24.71 9.66 20.42 10.32 16 11 C15.67 10.34 15.34 9.68 15 9 C17.31 8.34 19.62 7.68 22 7 C18.66317292 5.01227287 15.97604128 4.72418494 12.125 4.5625 C7.28205914 4.24279486 4.07506118 3.60351131 0 1 C0 0.67 0 0.34 0 0 Z " fill="#2DCCFB" transform="translate(104,67)"/>
<path d="M0 0 C12.50209796 -0.21003783 24.6755128 -0.39227481 37 2 C37 2.33 37 2.66 37 3 C31.44732706 3.80603317 26.5952671 4.00331042 21.0390625 3.32421875 C16.99082569 2.89233745 12.93914939 2.665247 8.875 2.4375 C7.71774414 2.37199951 7.71774414 2.37199951 6.53710938 2.30517578 C4.69149991 2.20176517 2.84576267 2.10063903 1 2 C0.67 1.34 0.34 0.68 0 0 Z " fill="#2CA1F6" transform="translate(502,0)"/>
<path d="M0 0 C4.92127034 -0.16682272 8.50343896 -0.24828052 13 2 C10.46081269 5.80878097 8.22528523 6.03522654 4 7 C2.9171875 7.24878906 1.834375 7.49757813 0.71875 7.75390625 C-1.58815991 8.28214779 -3.89670855 8.80329661 -6.20703125 9.31640625 C-8.93335246 9.8742794 -8.93335246 9.8742794 -11 11 C-10.67 10.01 -10.34 9.02 -10 8 C-7.12890625 6.8671875 -7.12890625 6.8671875 -3.5625 5.875 C0.82234893 4.70590749 0.82234893 4.70590749 5 3 C2.525 2.01 2.525 2.01 0 1 C0 0.67 0 0.34 0 0 Z " fill="#3BCEFB" transform="translate(114,71)"/>
<path d="M0 0 C0.66 0 1.32 0 2 0 C2.66 5.28 3.32 10.56 4 16 C3.01 16 2.02 16 1 16 C0.67 16.66 0.34 17.32 0 18 C-0.66 18 -1.32 18 -2 18 C-2.33 18.99 -2.66 19.98 -3 21 C-2 14 -1 7 0 0 Z " fill="#AAF0FD" transform="translate(84,32)"/>
<path d="M0 0 C6.08878192 0.54660656 11.28645567 1.92858526 17 4.0625 C18.16208984 4.48499023 18.16208984 4.48499023 19.34765625 4.91601562 C21.23450967 5.60320298 23.11766151 6.30054013 25 7 C24.01 7.66 23.02 8.32 22 9 C21.01 8.34 20.02 7.68 19 7 C17.4840625 7.061875 17.4840625 7.061875 15.9375 7.125 C10.8042367 6.96203926 6.50306075 5.46145368 2 3 C1.34 2.01 0.68 1.02 0 0 Z " fill="#1F90F8" transform="translate(544,4)"/>
<path d="M0 0 C1.26675035 3.86826448 0.37374002 5.89726618 -1.1640625 9.62890625 C-2.68837665 13.952545 -3.2941305 18.4824352 -4 23 C-4.99 23 -5.98 23 -7 23 C-8.3271261 19.0186217 -8.06915913 15.14954773 -8 11 C-7.01 12.32 -6.02 13.64 -5 15 C-4.72285156 14.08476563 -4.44570312 13.16953125 -4.16015625 12.2265625 C-3.79792969 11.03804687 -3.43570313 9.84953125 -3.0625 8.625 C-2.70285156 7.44164063 -2.34320313 6.25828125 -1.97265625 5.0390625 C-1 2 -1 2 0 0 Z " fill="#A0E7FC" transform="translate(91,88)"/>
<path d="M0 0 C-6.5320197 2.88916256 -6.5320197 2.88916256 -9.375 3.5625 C-9.91125 3.706875 -10.4475 3.85125 -11 4 C-11.33 4.66 -11.66 5.32 -12 6 C-11.13375 5.938125 -10.2675 5.87625 -9.375 5.8125 C-5.55800967 6.02455502 -3.28922464 7.12044307 0 9 C-3.32570422 10.66285211 -6.68360945 8.98079852 -10.125 8.0625 C-10.87910156 7.86720703 -11.63320313 7.67191406 -12.41015625 7.47070312 C-14.27508306 6.98676642 -16.13776459 6.49419231 -18 6 C-17.67 5.01 -17.34 4.02 -17 3 C-14.49147815 2.08781023 -12.14114462 1.37858927 -9.5625 0.75 C-8.86833984 0.564375 -8.17417969 0.37875 -7.45898438 0.1875 C-2.27480381 -1.13740191 -2.27480381 -1.13740191 0 0 Z " fill="#BAF2FC" transform="translate(69,69)"/>
<path d="M0 0 C0.33 0 0.66 0 1 0 C1.5 2.5625 1.5 2.5625 1 6 C-1.41490491 8.66301158 -4.17055931 10.79553617 -7 13 C-7.66 13.66 -8.32 14.32 -9 15 C-10.98821313 15.39764263 -12.98944339 15.73775349 -15 16 C-12.82975216 12.74462823 -11.31940705 11.92988782 -8 10 C-3.87820997 7.15400212 -1.98584963 4.59880967 0 0 Z " fill="#68E4FD" transform="translate(80,53)"/>
<path d="M0 0 C0.928125 0.268125 1.85625 0.53625 2.8125 0.8125 C4.20807953 1.20922724 5.6039485 1.60493681 7 2 C8.2684375 2.36158203 8.2684375 2.36158203 9.5625 2.73046875 C15.66575248 4.43833912 21.76749914 5.85084041 28 7 C28 7.33 28 7.66 28 8 C18.5481636 7.52163481 7.82943456 6.93957105 0 1 C0 0.67 0 0.34 0 0 Z " fill="#0C2FAC" transform="translate(286,470)"/>
<path d="M0 0 C0.66 0.33 1.32 0.66 2 1 C3.54023996 1.06950541 5.08334988 1.08452357 6.625 1.0625 C7.44226562 1.05347656 8.25953125 1.04445313 9.1015625 1.03515625 C9.72804688 1.02355469 10.35453125 1.01195313 11 1 C10.67 1.99 10.34 2.98 10 4 C11.32 4.33 12.64 4.66 14 5 C8.25 5.125 8.25 5.125 6 4 C4.46331135 3.77532169 2.92031946 3.59203195 1.375 3.4375 C0.55773438 3.35371094 -0.25953125 3.26992187 -1.1015625 3.18359375 C-1.72804687 3.12300781 -2.35453125 3.06242187 -3 3 C-3 2.34 -3 1.68 -3 1 C-2.01 0.67 -1.02 0.34 0 0 Z " fill="#6EDFFB" transform="translate(41,71)"/>
<path d="M0 0 C-1.5626324 3.83555225 -4.06449968 6.13609725 -7 9 C-7.556875 9.763125 -8.11375 10.52625 -8.6875 11.3125 C-9.3371875 12.1478125 -9.3371875 12.1478125 -10 13 C-10.66 13 -11.32 13 -12 13 C-10.66182195 9.02031425 -8.99662286 6.61251238 -6 3.6875 C-5.29875 2.99011719 -4.5975 2.29273438 -3.875 1.57421875 C-2 0 -2 0 0 0 Z " fill="#1E4BCB" transform="translate(394,311)"/>
<path d="M0 0 C2.97 0.495 2.97 0.495 6 1 C6.33 1.99 6.66 2.98 7 4 C2.71 4.66 -1.58 5.32 -6 6 C-6.33 5.34 -6.66 4.68 -7 4 C-4.69 3.34 -2.38 2.68 0 2 C0 1.34 0 0.68 0 0 Z " fill="#2EC9FB" transform="translate(126,72)"/>
<path d="M0 0 C3.15473719 0.35052635 4.8233534 0.86519076 7.375 2.8125 C9 5 9 5 8.75 7.25 C8.5025 7.8275 8.255 8.405 8 9 C1.42857143 3.85714286 1.42857143 3.85714286 0 0 Z " fill="#6CDCFA" transform="translate(70,81)"/>
<path d="M0 0 C-4.59811646 3.41911224 -9.32291603 5.89554912 -15 7 C-17.2734375 6.57421875 -17.2734375 6.57421875 -19 6 C-18.31292969 5.81824219 -17.62585937 5.63648437 -16.91796875 5.44921875 C-16.01691406 5.19785156 -15.11585937 4.94648437 -14.1875 4.6875 C-13.29417969 4.44386719 -12.40085937 4.20023437 -11.48046875 3.94921875 C-8.90179511 2.96241923 -7.85022164 1.97745752 -6 0 C-3 -1 -3 -1 0 0 Z " fill="#4FDCFB" transform="translate(71,65)"/>
<path d="M0 0 C4.69165109 2.97519337 8.84703191 6.31393365 13 10 C12.67 10.66 12.34 11.32 12 12 C11.01 12 10.02 12 9 12 C9 10.68 9 9.36 9 8 C8.443125 7.7525 7.88625 7.505 7.3125 7.25 C4.57589087 5.77075182 2.32349131 4.06532561 0 2 C0 1.34 0 0.68 0 0 Z " fill="#2C74F3" transform="translate(602,30)"/>
<path d="M0 0 C1.32 0.33 2.64 0.66 4 1 C1.36 3.64 -1.28 6.28 -4 9 C-4.33 7.68 -4.66 6.36 -5 5 C-2.8125 2.1875 -2.8125 2.1875 0 0 Z " fill="#79DCFA" transform="translate(97,81)"/>
<path d="M0 0 C0.33 0.99 0.66 1.98 1 3 C1.66 3 2.32 3 3 3 C2.67 4.32 2.34 5.64 2 7 C1.34 7 0.68 7 0 7 C-0.33 7.66 -0.66 8.32 -1 9 C-1.66 9 -2.32 9 -3 9 C-3.33 9.99 -3.66 10.98 -4 12 C-3.67 9.69 -3.34 7.38 -3 5 C-2.34 5 -1.68 5 -1 5 C-0.67 3.35 -0.34 1.7 0 0 Z " fill="#D0F7FD" transform="translate(85,41)"/>
<path d="M0 0 C4.92127034 -0.16682272 8.50343896 -0.24828052 13 2 C12.67 2.66 12.34 3.32 12 4 C9.69 4 7.38 4 5 4 C4.67 3.34 4.34 2.68 4 2 C1.98330173 0.86649466 1.98330173 0.86649466 0 0 Z " fill="#69DAFB" transform="translate(114,71)"/>
<path d="M0 0 C0.7425 0.185625 1.485 0.37125 2.25 0.5625 C2.8275 0.706875 3.405 0.85125 4 1 C4 1.66 4 2.32 4 3 C2.58249437 2.88490339 1.16598831 2.75746342 -0.25 2.625 C-1.03890625 2.55539062 -1.8278125 2.48578125 -2.640625 2.4140625 C-5.085877 1.98492887 -6.84836903 1.21399362 -9 0 C-5.58506541 -0.85373365 -3.35094035 -1.0809485 0 0 Z " fill="#476DD1" transform="translate(122,639)"/>
<path d="M0 0 C0 3.77910478 -0.99703962 4.46106101 -3.5 7.1875 C-4.1496875 7.90292969 -4.799375 8.61835938 -5.46875 9.35546875 C-5.9740625 9.89816406 -6.479375 10.44085938 -7 11 C-7.66 10.67 -8.32 10.34 -9 10 C-6.03 6.7 -3.06 3.4 0 0 Z " fill="#2955D1" transform="translate(494,243)"/>
<path d="M0 0 C-0.33 1.98 -0.66 3.96 -1 6 C-1.66 6 -2.32 6 -3 6 C-3.33 6.66 -3.66 7.32 -4 8 C-4 6.35 -4 4.7 -4 3 C-5.32 3.33 -6.64 3.66 -8 4 C-6.4425489 0.88509781 -3.40085499 0 0 0 Z " fill="#33D0F9" transform="translate(87,15)"/>
<path d="M0 0 C0.79921875 0.00902344 1.5984375 0.01804688 2.421875 0.02734375 C3.02515625 0.03894531 3.6284375 0.05054688 4.25 0.0625 C1.13089144 1.85525866 -1.42682428 2.40540718 -5 2.6875 C-5.89203125 2.76226562 -6.7840625 2.83703125 -7.703125 2.9140625 C-8.37859375 2.96304687 -9.0540625 3.01203125 -9.75 3.0625 C-8.75 1.0625 -8.75 1.0625 -6.984375 0.44140625 C-4.60849677 0.03850382 -2.40820483 -0.03541478 0 0 Z " fill="#4CE0FA" transform="translate(149.75,2.9375)"/>
<path d="M0 0 C0.99 0.28875 1.98 0.5775 3 0.875 C6.97749867 2.01375218 10.98230993 3.01319893 15 4 C15 4.33 15 4.66 15 5 C4.24281984 4.39425587 4.24281984 4.39425587 0 1 C0 0.67 0 0.34 0 0 Z " fill="#1B3DB4" transform="translate(286,470)"/>
<path d="M0 0 C2.32240046 2.85021875 3.93906527 5.46355091 5 9 C4.546875 11.15625 4.546875 11.15625 4 13 C3.32694982 11.39850114 2.66177773 9.79368971 2 8.1875 C1.62875 7.29417969 1.2575 6.40085937 0.875 5.48046875 C0 3 0 3 0 0 Z " fill="#4FD5FC" transform="translate(78,90)"/>
<path d="M0 0 C1.65 0 3.3 0 5 0 C5 0.66 5 1.32 5 2 C6.98 2.66 8.96 3.32 11 4 C9.4375 4.75 9.4375 4.75 7 5 C4.49713591 3.86915563 2.32992278 2.47860484 0 1 C0 0.67 0 0.34 0 0 Z " fill="#89E6FC" transform="translate(99,66)"/>
<path d="M0 0 C0.66 0.33 1.32 0.66 2 1 C-0.64 2.98 -3.28 4.96 -6 7 C-6 6.01 -6 5.02 -6 4 C-3 1.8125 -3 1.8125 0 0 Z " fill="#204CC9" transform="translate(405,302)"/>
<path d="M0 0 C0.33 0 0.66 0 1 0 C1.3125 2.75 1.3125 2.75 1 6 C-1.5 8.375 -1.5 8.375 -4 10 C-3.29445932 6.33118845 -1.72264494 3.29549466 0 0 Z " fill="#8FEDFC" transform="translate(80,53)"/>
<path d="M0 0 C1.46015291 0.28241641 2.91809793 0.57626614 4.375 0.875 C5.18710937 1.03742187 5.99921875 1.19984375 6.8359375 1.3671875 C9 2 9 2 11 4 C10.01 4.33 9.02 4.66 8 5 C7.01 4.34 6.02 3.68 5 3 C3.34450469 2.61500109 1.6777567 2.27206865 0 2 C0 1.34 0 0.68 0 0 Z " fill="#3094F8" transform="translate(558,8)"/>
<path d="M0 0 C3.60296594 -0.41176754 4.78402067 -0.1535853 7.8125 2 C8.534375 2.66 9.25625 3.32 10 4 C5.78087253 3.5205537 3.20336822 2.83374881 0 0 Z " fill="#4FD5FB" transform="translate(104,67)"/>
<path d="M0 0 C1.65 0 3.3 0 5 0 C5.33 1.32 5.66 2.64 6 4 C3.03 3.505 3.03 3.505 0 3 C0 2.01 0 1.02 0 0 Z " fill="#1287F9" transform="translate(553,7)"/>
</svg>
